<?xml version="1.0" encoding="utf-8"?>
<!-- Generator: Adobe Illustrator 23.0.6, SVG Export Plug-In . SVG Version: 6.00 Build 0)  -->
<svg version="1.1" id="Layer_1" xmlns="http://www.w3.org/2000/svg" xmlns:xlink="http://www.w3.org/1999/xlink" x="0px" y="0px"
	 viewBox="0 0 395.14 208.39" style="enable-background:new 0 0 395.14 208.39;" xml:space="preserve">
<style type="text/css">
	.st0{fill:#FFFFFF;}
	.st1{fill:#3A9948;}
	.st2{fill:url(#SVGID_1_);}
	.st3{fill:url(#SVGID_2_);}
	.st4{fill:url(#SVGID_3_);}
	.st5{fill:url(#SVGID_4_);}
	.st6{fill:url(#SVGID_5_);}
	.st7{fill:url(#SVGID_6_);}
	.st8{fill:url(#SVGID_7_);}
	.st9{fill:url(#SVGID_8_);}
	.st10{fill:url(#SVGID_9_);}
</style>
<g>
	<path class="st0" d="M145.82,133.06l-13.12-10.34c2.62-1.78,4.24-4.93,3.81-8.43c-0.49-4-3.75-7.23-7.76-7.67
		c-5.34-0.59-9.86,3.57-9.86,8.78c0,3.04,1.54,5.73,3.88,7.32l-13.12,10.34l-13.12-10.34c2.62-1.78,4.24-4.93,3.81-8.43
		c-0.49-4-3.75-7.23-7.76-7.67c-5.34-0.59-9.86,3.57-9.86,8.78c0,3.04,1.54,5.73,3.88,7.32l-13.12,10.34l-0.01-0.01v0l-3.34-2.63v0
		l-9.77-7.7c2.34-1.59,3.88-4.27,3.88-7.32c0-5.22-4.52-9.38-9.86-8.78c-4,0.45-7.27,3.68-7.76,7.67c-0.43,3.49,1.19,6.64,3.81,8.43
		l-13.12,10.34h0v9.41h0l11.09-8.52c0,0,0,0,0,0l-5.55,26.35v0h9.01c0,0,0,0,0,0l1.04-5.94c0.17-1,4.91-1,5.09,0l1.02,5.94v0h8.91
		c0,0,0,0,0,0l-5.55-26.35v0l10.57,8.11v0l0.52,0.4v0l0.01,0.01l11.09-8.52v0l-5.55,26.35c0,0,0,0,0,0h10.62v0h3.84c0,0,0,0,0,0
		h10.6v0l-5.55-26.35c0,0,0,0,0,0l11.08,8.51v0l0.01,0.01l0,0l0,0h0v0l11.09-8.52v0l-5.55,26.35c0,0,0,0,0,0h8.91v0l1.02-5.94
		c0.17-1,4.91-1,5.08,0l1.04,5.94c0,0,0,0,0,0h9.01v0l-5.55-26.35c0,0,0,0,0,0l11.09,8.52h0L145.82,133.06L145.82,133.06z"/>
	<g>
		<path class="st0" d="M186.48,124.07h-15.77l-2.57,7.61h-7.89l13.8-38.34h9.09l13.8,38.34h-7.89L186.48,124.07z M184.24,117.45
			l-5.64-16.6l-5.64,16.6H184.24z"/>
		<path class="st0" d="M228.22,93.35v38.34h-6.96v-3.23c-1.81,2.25-4.54,3.94-8.87,3.94c-8.6,0-13.53-7.28-13.53-14.57
			s4.93-14.57,13.53-14.57c4.33,0,7.06,1.64,8.87,3.94V93.35H228.22z M220.94,117.83c0-4.27-2.68-7.89-7.45-7.89
			c-4.77,0-7.5,3.61-7.5,7.89c0,4.27,2.74,7.89,7.5,7.89C218.25,125.72,220.94,122.1,220.94,117.83z"/>
		<path class="st0" d="M262.51,93.35v38.34h-6.96v-3.23c-1.81,2.25-4.54,3.94-8.87,3.94c-8.6,0-13.53-7.28-13.53-14.57
			s4.93-14.57,13.53-14.57c4.33,0,7.06,1.64,8.87,3.94V93.35H262.51z M255.23,117.83c0-4.27-2.68-7.89-7.45-7.89
			c-4.77,0-7.5,3.61-7.5,7.89c0,4.27,2.74,7.89,7.5,7.89C252.54,125.72,255.23,122.1,255.23,117.83z"/>
		<path class="st0" d="M285.3,103.26v7.56c-8.21-0.99-9.25,4.27-9.25,9.42v11.45h-6.96v-27.77h6.96v4.54
			C278.12,105.01,281.96,103.26,285.3,103.26z"/>
		<path class="st0" d="M316.03,120.51h-20.59c0.99,3.72,4.05,5.7,7.89,5.7c3.18,0,5.37-1.7,6.19-2.74l5.58,3.29
			c-2.24,3.12-6.52,5.64-11.77,5.64c-9.2,0-15.28-6.13-15.28-14.57c0-8.71,6.52-14.57,14.19-14.57
			C310.6,103.26,317.29,109.56,316.03,120.51z M309.23,115.14c-0.71-3.61-3.18-5.7-6.9-5.7c-3.4,0-6.08,2.14-6.9,5.7H309.23z"/>
		<path class="st0" d="M342.37,123.14c0,5.48-4,9.26-11.77,9.26c-5.31,0-10.68-2.14-11.94-6.79l6.68-2.08
			c0.22,1.15,1.31,3.01,5.37,3.01c2.9,0,4.54-1.04,4.54-2.9c0-2.63-4-2.52-7.28-3.23c-5.37-1.1-8.11-3.67-8.11-8.43
			c0-5.26,4.38-8.71,10.9-8.71c4.77,0,9.48,2.35,10.63,7.18l-6.3,1.53c-0.33-1.42-1.7-2.85-4.33-2.85c-2.03,0-4.11,0.77-4.11,2.85
			c0,2.47,3.72,2.63,5.92,3.12C339.36,116.57,342.37,118.43,342.37,123.14z"/>
		<path class="st0" d="M368.28,123.14c0,5.48-4,9.26-11.77,9.26c-5.31,0-10.68-2.14-11.94-6.79l6.68-2.08
			c0.22,1.15,1.31,3.01,5.37,3.01c2.9,0,4.54-1.04,4.54-2.9c0-2.63-4-2.52-7.28-3.23c-5.37-1.1-8.11-3.67-8.11-8.43
			c0-5.26,4.38-8.71,10.9-8.71c4.77,0,9.48,2.35,10.63,7.18l-6.3,1.53c-0.33-1.42-1.7-2.85-4.33-2.85c-2.03,0-4.11,0.77-4.11,2.85
			c0,2.47,3.72,2.63,5.92,3.12C365.27,116.57,368.28,118.43,368.28,123.14z"/>
	</g>
	<g>
		<path class="st0" d="M163.03,140.13v14.57h16.43v2.9h-16.43v17.91h-2.9v-38.34h21.41v2.96H163.03z"/>
		<path class="st0" d="M211.55,161.65c0,8-6.35,14.57-14.4,14.57c-8,0-14.4-6.57-14.4-14.57c0-8.05,6.41-14.57,14.4-14.57
			C205.2,147.08,211.55,153.6,211.55,161.65z M208.65,161.65c0-6.41-5.09-11.67-11.5-11.67s-11.5,5.26-11.5,11.67
			c0,6.41,5.09,11.61,11.5,11.61S208.65,168.06,208.65,161.65z"/>
		<path class="st0" d="M228.01,147.08v3.4c-6.14,0-9.86,3.89-9.86,10.9v14.13h-2.96v-27.77h2.96v5.97
			C220.07,149.98,223.46,147.08,228.01,147.08z"/>
		<path class="st0" d="M261.02,167.89h-15.77l-2.57,7.61h-7.89l13.8-38.34h9.09l13.8,38.34h-7.89L261.02,167.89z M258.77,161.27
			l-5.64-16.6l-5.64,16.6H258.77z"/>
		<path class="st0" d="M283.27,137.17v38.34h-6.96v-38.34H283.27z"/>
		<path class="st0" d="M296.8,137.17v38.34h-6.96v-38.34H296.8z"/>
	</g>
	<path class="st0" d="M64.8,166.3c13.94,15.71,26.39,27.93,26.39,27.93s12.45-12.21,26.39-27.93H64.8z"/>
	<path class="st0" d="M91.19,14.16c-35.53,0-64.33,28.8-64.33,64.33c0,10.76,5.91,26.86,14.14,44.07l1.03-0.81
		c-0.93-1.95-1.43-4.12-1.43-6.35c0-4.21,1.8-8.24,4.94-11.05c3.14-2.81,7.37-4.16,11.57-3.68c6.74,0.75,12.22,6.18,13.04,12.9
		c0.35,2.87-0.13,5.69-1.31,8.18l4.67,3.68l4.67-3.68c-0.93-1.95-1.43-4.12-1.43-6.35c0-4.21,1.8-8.24,4.94-11.05
		c3.14-2.81,7.37-4.16,11.57-3.68c6.74,0.75,12.22,6.18,13.04,12.9c0.35,2.87-0.13,5.69-1.31,8.18l4.67,3.68l4.67-3.68
		c-0.93-1.95-1.42-4.12-1.42-6.35c0-4.21,1.8-8.24,4.94-11.05c3.14-2.81,7.37-4.16,11.57-3.68c6.74,0.75,12.22,6.18,13.04,12.9
		c0.35,2.87-0.13,5.69-1.31,8.18l0.45,0.36c8.11-17.04,13.92-32.95,13.92-43.61C155.52,42.97,126.72,14.16,91.19,14.16z
		 M91.19,87.19c-9.54,0-17.19-7.85-17.19-17.39c0-9.61,7.65-17.39,17.19-17.39c9.61,0,17.2,7.78,17.2,17.39
		C108.38,79.34,100.8,87.19,91.19,87.19z"/>
</g>
<g>
	<path d="M145.82-103.4l-13.12-10.34c2.62-1.78,4.24-4.93,3.81-8.43c-0.49-4-3.75-7.23-7.76-7.67c-5.34-0.59-9.86,3.57-9.86,8.78
		c0,3.04,1.54,5.73,3.88,7.32l-13.12,10.34l-13.12-10.34c2.62-1.78,4.24-4.93,3.81-8.43c-0.49-4-3.75-7.23-7.76-7.67
		c-5.34-0.59-9.86,3.57-9.86,8.78c0,3.04,1.54,5.73,3.88,7.32L73.51-103.4l-0.01-0.01v0l-3.34-2.63v0l-9.77-7.7
		c2.34-1.59,3.88-4.27,3.88-7.32c0-5.22-4.52-9.38-9.86-8.78c-4,0.45-7.27,3.68-7.76,7.67c-0.43,3.49,1.19,6.64,3.81,8.43
		L37.35-103.4h0v9.41h0l11.09-8.52c0,0,0,0,0,0l-5.55,26.35v0h9.01c0,0,0,0,0,0l1.04-5.94c0.17-1,4.91-1,5.09,0l1.02,5.94v0h8.91
		c0,0,0,0,0,0l-5.55-26.35v0l10.57,8.11v0L73.5-94v0l0.01,0.01l11.09-8.52v0l-5.55,26.35c0,0,0,0,0,0h10.62v0h3.84c0,0,0,0,0,0h10.6
		v0l-5.55-26.35c0,0,0,0,0,0L109.65-94v0l0.01,0.01l0,0l0,0h0v0l11.09-8.52v0l-5.55,26.35c0,0,0,0,0,0h8.91v0l1.02-5.94
		c0.17-1,4.91-1,5.08,0l1.04,5.94c0,0,0,0,0,0h9.01v0l-5.55-26.35c0,0,0,0,0,0l11.09,8.52h0L145.82-103.4L145.82-103.4z"/>
	<g>
		<path d="M186.48-112.39h-15.77l-2.57,7.61h-7.89l13.8-38.34h9.09l13.8,38.34h-7.89L186.48-112.39z M184.24-119.02l-5.64-16.6
			l-5.64,16.6H184.24z"/>
		<path d="M228.22-143.12v38.34h-6.96v-3.23c-1.81,2.25-4.54,3.94-8.87,3.94c-8.6,0-13.53-7.28-13.53-14.57s4.93-14.57,13.53-14.57
			c4.33,0,7.06,1.64,8.87,3.94v-13.86H228.22z M220.94-118.63c0-4.27-2.68-7.89-7.45-7.89c-4.77,0-7.5,3.61-7.5,7.89
			c0,4.27,2.74,7.89,7.5,7.89C218.25-110.75,220.94-114.36,220.94-118.63z"/>
		<path d="M262.51-143.12v38.34h-6.96v-3.23c-1.81,2.25-4.54,3.94-8.87,3.94c-8.6,0-13.53-7.28-13.53-14.57s4.93-14.57,13.53-14.57
			c4.33,0,7.06,1.64,8.87,3.94v-13.86H262.51z M255.23-118.63c0-4.27-2.68-7.89-7.45-7.89c-4.77,0-7.5,3.61-7.5,7.89
			c0,4.27,2.74,7.89,7.5,7.89C252.54-110.75,255.23-114.36,255.23-118.63z"/>
		<path d="M285.3-133.2v7.56c-8.21-0.99-9.25,4.27-9.25,9.42v11.45h-6.96v-27.77h6.96v4.54C278.12-131.45,281.96-133.2,285.3-133.2z
			"/>
		<path d="M316.03-115.95h-20.59c0.99,3.72,4.05,5.7,7.89,5.7c3.18,0,5.37-1.7,6.19-2.74l5.58,3.29c-2.24,3.12-6.52,5.64-11.77,5.64
			c-9.2,0-15.28-6.13-15.28-14.57c0-8.71,6.52-14.57,14.19-14.57C310.6-133.2,317.29-126.9,316.03-115.95z M309.23-121.32
			c-0.71-3.61-3.18-5.7-6.9-5.7c-3.4,0-6.08,2.14-6.9,5.7H309.23z"/>
		<path d="M342.37-113.32c0,5.48-4,9.26-11.77,9.26c-5.31,0-10.68-2.14-11.94-6.79l6.68-2.08c0.22,1.15,1.31,3.01,5.37,3.01
			c2.9,0,4.54-1.04,4.54-2.9c0-2.63-4-2.52-7.28-3.23c-5.37-1.1-8.11-3.67-8.11-8.43c0-5.26,4.38-8.71,10.9-8.71
			c4.77,0,9.48,2.35,10.63,7.18l-6.3,1.53c-0.33-1.42-1.7-2.85-4.33-2.85c-2.03,0-4.11,0.77-4.11,2.85c0,2.47,3.72,2.63,5.92,3.12
			C339.36-119.89,342.37-118.03,342.37-113.32z"/>
		<path d="M368.28-113.32c0,5.48-4,9.26-11.77,9.26c-5.31,0-10.68-2.14-11.94-6.79l6.68-2.08c0.22,1.15,1.31,3.01,5.37,3.01
			c2.9,0,4.54-1.04,4.54-2.9c0-2.63-4-2.52-7.28-3.23c-5.37-1.1-8.11-3.67-8.11-8.43c0-5.26,4.38-8.71,10.9-8.71
			c4.77,0,9.48,2.35,10.63,7.18l-6.3,1.53c-0.33-1.42-1.7-2.85-4.33-2.85c-2.03,0-4.11,0.77-4.11,2.85c0,2.47,3.72,2.63,5.92,3.12
			C365.27-119.89,368.28-118.03,368.28-113.32z"/>
	</g>
	<g>
		<path d="M163.03-96.34v14.57h16.43v2.9h-16.43v17.91h-2.9V-99.3h21.41v2.96H163.03z"/>
		<path d="M211.55-74.81c0,8-6.35,14.57-14.4,14.57c-8,0-14.4-6.57-14.4-14.57c0-8.05,6.41-14.57,14.4-14.57
			C205.2-89.38,211.55-82.87,211.55-74.81z M208.65-74.81c0-6.41-5.09-11.67-11.5-11.67s-11.5,5.26-11.5,11.67
			c0,6.41,5.09,11.61,11.5,11.61S208.65-68.41,208.65-74.81z"/>
		<path d="M228.01-89.38v3.4c-6.14,0-9.86,3.89-9.86,10.9v14.13h-2.96v-27.77h2.96v5.97C220.07-86.48,223.46-89.38,228.01-89.38z"/>
		<path d="M261.02-68.57h-15.77l-2.57,7.61h-7.89l13.8-38.34h9.09l13.8,38.34h-7.89L261.02-68.57z M258.77-75.2l-5.64-16.6
			l-5.64,16.6H258.77z"/>
		<path d="M283.27-99.3v38.34h-6.96V-99.3H283.27z"/>
		<path d="M296.8-99.3v38.34h-6.96V-99.3H296.8z"/>
	</g>
	<path d="M64.8-70.17c13.94,15.71,26.39,27.93,26.39,27.93s12.45-12.21,26.39-27.93H64.8z"/>
	<path d="M91.19-222.3c-35.53,0-64.33,28.8-64.33,64.33c0,10.76,5.91,26.86,14.14,44.07l1.03-0.81c-0.93-1.95-1.43-4.12-1.43-6.35
		c0-4.21,1.8-8.24,4.94-11.05c3.14-2.81,7.37-4.16,11.57-3.68c6.74,0.75,12.22,6.18,13.04,12.9c0.35,2.87-0.13,5.69-1.31,8.18
		l4.67,3.68l4.67-3.68c-0.93-1.95-1.43-4.12-1.43-6.35c0-4.21,1.8-8.24,4.94-11.05c3.14-2.81,7.37-4.16,11.57-3.68
		c6.74,0.75,12.22,6.18,13.04,12.9c0.35,2.87-0.13,5.69-1.31,8.18l4.67,3.68l4.67-3.68c-0.93-1.95-1.42-4.12-1.42-6.35
		c0-4.21,1.8-8.24,4.94-11.05c3.14-2.81,7.37-4.16,11.57-3.68c6.74,0.75,12.22,6.18,13.04,12.9c0.35,2.87-0.13,5.69-1.31,8.18
		l0.45,0.36c8.11-17.04,13.92-32.95,13.92-43.61C155.52-193.5,126.72-222.3,91.19-222.3z M91.19-149.28
		c-9.54,0-17.19-7.85-17.19-17.39c0-9.61,7.65-17.39,17.19-17.39c9.61,0,17.2,7.78,17.2,17.39
		C108.38-157.12,100.8-149.28,91.19-149.28z"/>
</g>
<g>
	<path class="st1" d="M145.82-368.66l-13.12-10.34c2.62-1.78,4.24-4.93,3.81-8.43c-0.49-4-3.75-7.23-7.76-7.67
		c-5.34-0.59-9.86,3.57-9.86,8.78c0,3.04,1.54,5.73,3.88,7.32l-13.12,10.34l-13.12-10.34c2.62-1.78,4.24-4.93,3.81-8.43
		c-0.49-4-3.75-7.23-7.76-7.67c-5.34-0.59-9.86,3.57-9.86,8.78c0,3.04,1.54,5.73,3.88,7.32l-13.12,10.34l-0.01-0.01v0l-3.34-2.63v0
		l-9.77-7.7c2.34-1.59,3.88-4.27,3.88-7.32c0-5.22-4.52-9.38-9.86-8.78c-4,0.45-7.27,3.68-7.76,7.67c-0.43,3.49,1.19,6.64,3.81,8.43
		l-13.12,10.34h0v9.41h0l11.09-8.52c0,0,0,0,0,0l-5.55,26.35v0h9.01c0,0,0,0,0,0l1.04-5.94c0.17-1,4.91-1,5.09,0l1.02,5.94v0h8.91
		c0,0,0,0,0,0l-5.55-26.35v0l10.57,8.11v0l0.52,0.4v0l0.01,0.01l11.09-8.52v0l-5.55,26.35c0,0,0,0,0,0h10.62v0h3.84c0,0,0,0,0,0
		h10.6v0l-5.55-26.35c0,0,0,0,0,0l11.08,8.51v0l0.01,0.01l0,0l0,0h0v0l11.09-8.52v0l-5.55,26.35c0,0,0,0,0,0h8.91v0l1.02-5.94
		c0.17-1,4.91-1,5.08,0l1.04,5.94c0,0,0,0,0,0h9.01v0l-5.55-26.35c0,0,0,0,0,0l11.09,8.52h0L145.82-368.66L145.82-368.66z"/>
	<g>
		<linearGradient id="SVGID_1_" gradientUnits="userSpaceOnUse" x1="353.7049" y1="-302.1626" x2="207.8381" y2="-371.925">
			<stop  offset="0" style="stop-color:#0474A5"/>
			<stop  offset="1" style="stop-color:#1B439A"/>
		</linearGradient>
		<path class="st2" d="M186.48-377.65h-15.77l-2.57,7.61h-7.89l13.8-38.34h9.09l13.8,38.34h-7.89L186.48-377.65z M184.24-384.28
			l-5.64-16.6l-5.64,16.6H184.24z"/>
		<linearGradient id="SVGID_2_" gradientUnits="userSpaceOnUse" x1="362.325" y1="-320.1864" x2="216.4582" y2="-389.9488">
			<stop  offset="0" style="stop-color:#0474A5"/>
			<stop  offset="1" style="stop-color:#1B439A"/>
		</linearGradient>
		<path class="st3" d="M228.22-408.38v38.34h-6.96v-3.23c-1.81,2.25-4.54,3.94-8.87,3.94c-8.6,0-13.53-7.28-13.53-14.57
			c0-7.28,4.93-14.57,13.53-14.57c4.33,0,7.06,1.64,8.87,3.94v-13.86H228.22z M220.94-383.9c0-4.27-2.68-7.89-7.45-7.89
			c-4.77,0-7.5,3.61-7.5,7.89c0,4.27,2.74,7.89,7.5,7.89C218.25-376.01,220.94-379.63,220.94-383.9z"/>
		<linearGradient id="SVGID_3_" gradientUnits="userSpaceOnUse" x1="368.7083" y1="-333.5333" x2="222.8414" y2="-403.2957">
			<stop  offset="0" style="stop-color:#0474A5"/>
			<stop  offset="1" style="stop-color:#1B439A"/>
		</linearGradient>
		<path class="st4" d="M262.51-408.38v38.34h-6.96v-3.23c-1.81,2.25-4.54,3.94-8.87,3.94c-8.6,0-13.53-7.28-13.53-14.57
			c0-7.28,4.93-14.57,13.53-14.57c4.33,0,7.06,1.64,8.87,3.94v-13.86H262.51z M255.23-383.9c0-4.27-2.68-7.89-7.45-7.89
			c-4.77,0-7.5,3.61-7.5,7.89c0,4.27,2.74,7.89,7.5,7.89C252.54-376.01,255.23-379.63,255.23-383.9z"/>
		<linearGradient id="SVGID_4_" gradientUnits="userSpaceOnUse" x1="371.4143" y1="-339.1913" x2="225.5475" y2="-408.9537">
			<stop  offset="0" style="stop-color:#0474A5"/>
			<stop  offset="1" style="stop-color:#1B439A"/>
		</linearGradient>
		<path class="st5" d="M285.3-398.47v7.56c-8.21-0.99-9.25,4.27-9.25,9.42v11.45h-6.96v-27.77h6.96v4.54
			C278.12-396.71,281.96-398.47,285.3-398.47z"/>
		<linearGradient id="SVGID_5_" gradientUnits="userSpaceOnUse" x1="375.9789" y1="-348.7356" x2="230.1121" y2="-418.498">
			<stop  offset="0" style="stop-color:#0474A5"/>
			<stop  offset="1" style="stop-color:#1B439A"/>
		</linearGradient>
		<path class="st6" d="M316.03-381.21h-20.59c0.99,3.72,4.05,5.7,7.89,5.7c3.18,0,5.37-1.7,6.19-2.74l5.58,3.29
			c-2.24,3.12-6.52,5.64-11.77,5.64c-9.2,0-15.28-6.13-15.28-14.57c0-8.71,6.52-14.57,14.19-14.57
			C310.6-398.47,317.29-392.17,316.03-381.21z M309.23-386.58c-0.71-3.61-3.18-5.7-6.9-5.7c-3.4,0-6.08,2.14-6.9,5.7H309.23z"/>
		<linearGradient id="SVGID_6_" gradientUnits="userSpaceOnUse" x1="381.1437" y1="-359.5346" x2="235.2769" y2="-429.297">
			<stop  offset="0" style="stop-color:#0474A5"/>
			<stop  offset="1" style="stop-color:#1B439A"/>
		</linearGradient>
		<path class="st7" d="M342.37-378.59c0,5.48-4,9.26-11.77,9.26c-5.31,0-10.68-2.14-11.94-6.79l6.68-2.08
			c0.22,1.15,1.31,3.01,5.37,3.01c2.9,0,4.54-1.04,4.54-2.9c0-2.63-4-2.52-7.28-3.23c-5.37-1.1-8.11-3.67-8.11-8.43
			c0-5.26,4.38-8.71,10.9-8.71c4.77,0,9.48,2.35,10.63,7.18l-6.3,1.53c-0.33-1.42-1.7-2.85-4.33-2.85c-2.03,0-4.11,0.77-4.11,2.85
			c0,2.47,3.72,2.63,5.92,3.12C339.36-385.16,342.37-383.3,342.37-378.59z"/>
		<linearGradient id="SVGID_7_" gradientUnits="userSpaceOnUse" x1="385.9666" y1="-369.6188" x2="240.0997" y2="-439.3812">
			<stop  offset="0" style="stop-color:#0474A5"/>
			<stop  offset="1" style="stop-color:#1B439A"/>
		</linearGradient>
		<path class="st8" d="M368.28-378.59c0,5.48-4,9.26-11.77,9.26c-5.31,0-10.68-2.14-11.94-6.79l6.68-2.08
			c0.22,1.15,1.31,3.01,5.37,3.01c2.9,0,4.54-1.04,4.54-2.9c0-2.63-4-2.52-7.28-3.23c-5.37-1.1-8.11-3.67-8.11-8.43
			c0-5.26,4.38-8.71,10.9-8.71c4.77,0,9.48,2.35,10.63,7.18l-6.3,1.53c-0.33-1.42-1.7-2.85-4.33-2.85c-2.03,0-4.11,0.77-4.11,2.85
			c0,2.47,3.72,2.63,5.92,3.12C365.27-385.16,368.28-383.3,368.28-378.59z"/>
	</g>
	<g>
		<path class="st1" d="M163.03-361.6v14.57h16.43v2.9h-16.43v17.91h-2.9v-38.34h21.41v2.96H163.03z"/>
		<path class="st1" d="M211.55-340.08c0,8-6.35,14.57-14.4,14.57c-8,0-14.4-6.57-14.4-14.57c0-8.05,6.41-14.57,14.4-14.57
			C205.2-354.65,211.55-348.13,211.55-340.08z M208.65-340.08c0-6.41-5.09-11.67-11.5-11.67s-11.5,5.26-11.5,11.67
			c0,6.41,5.09,11.61,11.5,11.61S208.65-333.67,208.65-340.08z"/>
		<path class="st1" d="M228.01-354.65v3.4c-6.14,0-9.86,3.89-9.86,10.9v14.13h-2.96v-27.77h2.96v5.97
			C220.07-351.74,223.46-354.65,228.01-354.65z"/>
		<path class="st1" d="M261.02-333.83h-15.77l-2.57,7.61h-7.89l13.8-38.34h9.09l13.8,38.34h-7.89L261.02-333.83z M258.77-340.46
			l-5.64-16.6l-5.64,16.6H258.77z"/>
		<path class="st1" d="M283.27-364.56v38.34h-6.96v-38.34H283.27z"/>
		<path class="st1" d="M296.8-364.56v38.34h-6.96v-38.34H296.8z"/>
	</g>
	<linearGradient id="SVGID_8_" gradientUnits="userSpaceOnUse" x1="139.4202" y1="-260.0486" x2="-1.0606" y2="-479.6024">
		<stop  offset="0" style="stop-color:#0474A5"/>
		<stop  offset="1" style="stop-color:#1B439A"/>
	</linearGradient>
	<path class="st9" d="M64.8-335.43c13.94,15.71,26.39,27.93,26.39,27.93s12.45-12.21,26.39-27.93H64.8z"/>
	<linearGradient id="SVGID_9_" gradientUnits="userSpaceOnUse" x1="178.5673" y1="-285.0969" x2="38.0866" y2="-504.6506">
		<stop  offset="0" style="stop-color:#0474A5"/>
		<stop  offset="1" style="stop-color:#1B439A"/>
	</linearGradient>
	<path class="st10" d="M91.19-487.56c-35.53,0-64.33,28.8-64.33,64.33c0,10.76,5.91,26.86,14.14,44.07l1.03-0.81
		c-0.93-1.95-1.43-4.12-1.43-6.35c0-4.21,1.8-8.24,4.94-11.05c3.14-2.81,7.37-4.16,11.57-3.68c6.74,0.75,12.22,6.18,13.04,12.9
		c0.35,2.87-0.13,5.69-1.31,8.18l4.67,3.68l4.67-3.68c-0.93-1.95-1.43-4.12-1.43-6.35c0-4.21,1.8-8.24,4.94-11.05
		c3.14-2.81,7.37-4.16,11.57-3.68c6.74,0.75,12.22,6.18,13.04,12.9c0.35,2.87-0.13,5.69-1.31,8.18l4.67,3.68l4.67-3.68
		c-0.93-1.95-1.42-4.12-1.42-6.35c0-4.21,1.8-8.24,4.94-11.05c3.14-2.81,7.37-4.16,11.57-3.68c6.74,0.75,12.22,6.18,13.04,12.9
		c0.35,2.87-0.13,5.69-1.31,8.18l0.45,0.36c8.11-17.04,13.92-32.95,13.92-43.61C155.52-458.76,126.72-487.56,91.19-487.56z
		 M91.19-414.54c-9.54,0-17.19-7.85-17.19-17.39c0-9.61,7.65-17.39,17.19-17.39c9.61,0,17.2,7.78,17.2,17.39
		C108.38-422.38,100.8-414.54,91.19-414.54z"/>
</g>
</svg>
