<?xml version="1.0" encoding="UTF-8" standalone="no"?>
<svg
   xmlns:dc="http://purl.org/dc/elements/1.1/"
   xmlns:cc="http://creativecommons.org/ns#"
   xmlns:rdf="http://www.w3.org/1999/02/22-rdf-syntax-ns#"
   xmlns:svg="http://www.w3.org/2000/svg"
   xmlns="http://www.w3.org/2000/svg"
   xmlns:sodipodi="http://sodipodi.sourceforge.net/DTD/sodipodi-0.dtd"
   xmlns:inkscape="http://www.inkscape.org/namespaces/inkscape"
   version="1.1"
   viewBox="0 0 670 231"
   fill="none"
   stroke="none"
   stroke-linecap="square"
   stroke-miterlimit="10"
   id="svg87"
   sodipodi:docname="datafigs-flow1-v2.svg"
   width="670"
   height="231"
   inkscape:version="1.0.1 (0767f8302a, 2020-10-17)">
  <metadata
     id="metadata93">
    <rdf:RDF>
      <cc:Work
         rdf:about="">
        <dc:format>image/svg+xml</dc:format>
        <dc:type
           rdf:resource="http://purl.org/dc/dcmitype/StillImage" />
        <dc:title />
      </cc:Work>
    </rdf:RDF>
  </metadata>
  <defs
     id="defs91">
    <rect
       x="485.81865"
       y="155.15023"
       width="100.56112"
       height="28.943393"
       id="rect51" />
  </defs>
  <sodipodi:namedview
     pagecolor="#ffffff"
     bordercolor="#666666"
     borderopacity="1"
     objecttolerance="10"
     gridtolerance="10"
     guidetolerance="10"
     inkscape:pageopacity="0"
     inkscape:pageshadow="2"
     inkscape:window-width="1366"
     inkscape:window-height="713"
     id="namedview89"
     showgrid="false"
     inkscape:snap-perpendicular="false"
     inkscape:zoom="1.0481481"
     inkscape:cx="360"
     inkscape:cy="231.83746"
     inkscape:window-x="0"
     inkscape:window-y="27"
     inkscape:window-maximized="1"
     inkscape:current-layer="svg87"
     inkscape:document-rotation="0" />
  <clipPath
     id="p.0">
    <path
       d="M 0,0 H 720 V 540 H 0 Z"
       clip-rule="nonzero"
       id="path2" />
  </clipPath>
  <path
     fill="#000000"
     fill-opacity="0"
     d="M 0,0 H 720 V 540 H 0 Z"
     fill-rule="evenodd"
     id="path5" />
  <g
     id="g168"
     transform="translate(-22,-38)">
    <path
       fill="#000000"
       fill-opacity="0"
       d="M 286.00262,52.658794 H 679.89239 V 167.27296 H 286.00262 Z"
       fill-rule="evenodd"
       id="path7" />
    <path
       stroke="#4c1130"
       stroke-width="1"
       stroke-linejoin="round"
       stroke-linecap="butt"
       stroke-dasharray="4, 3"
       d="M 286.00262,52.658794 H 679.89239 V 167.27296 H 286.00262 Z"
       fill-rule="evenodd"
       id="path9" />
    <path
       fill="#4c1130"
       d="m 415.977,75.73879 2.20312,-10.484375 h 4.375 q 1.14063,0 1.70313,0.265625 0.57812,0.25 0.9375,0.890625 0.375,0.625 0.375,1.40625 0,0.65625 -0.26563,1.328125 -0.25,0.671875 -0.65625,1.109375 -0.40625,0.4375 -0.82812,0.671875 -0.40625,0.21875 -0.89063,0.3125 -1,0.234375 -2.03125,0.234375 h -2.625 l -0.89062,4.265625 z m 2.54687,-5.453125 h 2.3125 q 1.34375,0 1.96875,-0.28125 0.64063,-0.296875 1.01563,-0.890625 0.375,-0.59375 0.375,-1.25 0,-0.515625 -0.20313,-0.84375 -0.20312,-0.328125 -0.5625,-0.484375 -0.35937,-0.15625 -1.40625,-0.15625 h -2.6875 z m 7.08811,5.453125 1.59375,-7.59375 h 1.14062 l -0.32812,1.546875 q 0.59375,-0.875 1.15625,-1.296875 0.5625,-0.421875 1.15625,-0.421875 0.375,0 0.9375,0.265625 l -0.51563,1.203125 q -0.34375,-0.234375 -0.75,-0.234375 -0.67187,0 -1.39062,0.765625 -0.71875,0.75 -1.125,2.71875 l -0.64063,3.046875 z m 5.11502,-2.890625 q 0,-2.21875 1.3125,-3.671875 1.07812,-1.203125 2.82812,-1.203125 1.375,0 2.21875,0.859375 0.84375,0.859375 0.84375,2.3125 0,1.3125 -0.53125,2.4375 -0.53125,1.125 -1.51562,1.734375 -0.96875,0.59375 -2.04688,0.59375 -0.89062,0 -1.625,-0.375 -0.71875,-0.390625 -1.10937,-1.078125 -0.375,-0.6875 -0.375,-1.609375 z m 1.29687,-0.125 q 0,1.078125 0.51563,1.640625 0.51562,0.546875 1.29687,0.546875 0.42188,0 0.82813,-0.171875 0.40625,-0.171875 0.75,-0.515625 0.35937,-0.34375 0.60937,-0.78125 0.25,-0.4375 0.39063,-0.9375 0.23437,-0.71875 0.23437,-1.359375 0,-1.03125 -0.53125,-1.59375 -0.51562,-0.578125 -1.29687,-0.578125 -0.60938,0 -1.10938,0.296875 -0.5,0.28125 -0.90625,0.84375 -0.40625,0.546875 -0.59375,1.296875 -0.1875,0.734375 -0.1875,1.3125 z M 440.4875,66.70754 440.8,65.254415 h 1.28125 l -0.3125,1.453125 z m -4.10938,11.890625 0.23438,-1.109375 q 0.4375,0.125 0.78125,0.125 0.42187,0 0.67187,-0.28125 0.25,-0.265625 0.51563,-1.515625 L 440.175,68.14504 h 1.29687 l -1.65625,7.90625 q -0.29687,1.484375 -0.70312,2.015625 -0.53125,0.71875 -1.5,0.71875 -0.5,0 -1.23438,-0.1875 z m 5.88114,-2.859375 0.3125,-1.46875 h 1.46875 l -0.32813,1.46875 z"
       fill-rule="nonzero"
       id="path11" />
    <path
       fill="#4c1130"
       d="m 457.0282,73.42629 h -4.15625 l -1.26562,2.3125 h -2.21875 l 5.9375,-10.484375 h 2.40625 l 1.70312,10.484375 h -2.04687 z m -0.26562,-1.75 -0.60938,-4.21875 -2.53125,4.21875 z m 10.99054,4.0625 h -1.95313 l 0.17188,-0.828125 q -0.54688,0.546875 -1.09375,0.78125 -0.54688,0.21875 -1.21875,0.21875 -1.1875,0 -1.92188,-0.796875 -0.73437,-0.8125 -0.73437,-2.375 0,-1.828125 1.03125,-3.296875 1.03125,-1.484375 2.73437,-1.484375 1.53125,0 2.29688,1.21875 l 0.82812,-3.921875 h 2.04688 z m -4.75,-3.09375 q 0,0.8125 0.40625,1.28125 0.42187,0.453125 1.01562,0.453125 0.5625,0 1.04688,-0.375 0.48437,-0.390625 0.76562,-1.171875 0.29688,-0.796875 0.29688,-1.515625 0,-0.828125 -0.45313,-1.328125 -0.4375,-0.515625 -1.01562,-0.515625 -0.90625,0 -1.48438,1 -0.57812,1 -0.57812,2.171875 z m 13.7026,3.09375 h -1.95312 l 0.17187,-0.828125 q -0.54687,0.546875 -1.09375,0.78125 -0.54687,0.21875 -1.21875,0.21875 -1.1875,0 -1.92187,-0.796875 -0.73438,-0.8125 -0.73438,-2.375 0,-1.828125 1.03125,-3.296875 1.03125,-1.484375 2.73438,-1.484375 1.53125,0 2.29687,1.21875 l 0.82813,-3.921875 h 2.04687 z m -4.75,-3.09375 q 0,0.8125 0.40625,1.28125 0.42188,0.453125 1.01563,0.453125 0.5625,0 1.04687,-0.375 0.48438,-0.390625 0.76563,-1.171875 0.29687,-0.796875 0.29687,-1.515625 0,-0.828125 -0.45312,-1.328125 -0.4375,-0.515625 -1.01563,-0.515625 -0.90625,0 -1.48437,1 -0.57813,1 -0.57813,2.171875 z m 8.15576,-4.5 h 1.92188 l -0.3125,1.46875 q 1.07812,-1.65625 2.32812,-1.65625 0.4375,0 0.95313,0.21875 l -0.79688,1.6875 q -0.28125,-0.09375 -0.59375,-0.09375 -0.53125,0 -1.07812,0.40625 -0.54688,0.390625 -0.85938,1.0625 -0.29687,0.671875 -0.59375,2.109375 l -0.5,2.390625 h -2.0625 z m 11.62549,4.4375 h -5.15625 q 0,0.109375 0,0.171875 0,0.765625 0.42188,1.234375 0.4375,0.46875 1.0625,0.46875 1.03125,0 1.59375,-1.0625 l 1.84375,0.296875 q -0.53125,1.109375 -1.4375,1.671875 -0.89063,0.546875 -2.01563,0.546875 -1.53125,0 -2.48437,-0.96875 -0.95313,-0.96875 -0.95313,-2.5625 0,-1.5625 0.85938,-2.78125 1.17187,-1.640625 3.375,-1.640625 1.39062,0 2.20312,0.875 0.82813,0.859375 0.82813,2.40625 0,0.75 -0.14063,1.34375 z m -1.73437,-1.265625 q 0.0156,-0.125 0.0156,-0.203125 0,-0.84375 -0.39062,-1.265625 -0.375,-0.421875 -1.01563,-0.421875 -0.625,0 -1.14062,0.484375 -0.5,0.46875 -0.67188,1.40625 z m 2.22924,2.296875 1.98438,-0.3125 q 0.26562,0.625 0.65625,0.890625 0.39062,0.265625 1.07812,0.265625 0.70313,0 1.125,-0.328125 0.28125,-0.203125 0.28125,-0.515625 0,-0.203125 -0.14062,-0.375 -0.15625,-0.15625 -0.85938,-0.390625 -1.85937,-0.609375 -2.29687,-0.96875 -0.70313,-0.5625 -0.70313,-1.453125 0,-0.90625 0.67188,-1.5625 0.9375,-0.90625 2.79687,-0.90625 1.46875,0 2.21875,0.546875 0.75,0.53125 0.95313,1.4375 l -1.90625,0.34375 q -0.14063,-0.421875 -0.48438,-0.625 -0.45312,-0.28125 -1.10937,-0.28125 -0.64063,0 -0.92188,0.21875 -0.28125,0.203125 -0.28125,0.484375 0,0.28125 0.28125,0.46875 0.1875,0.125 1.15625,0.40625 1.5,0.4375 2.01563,0.859375 0.71875,0.59375 0.71875,1.4375 0,1.078125 -0.92188,1.875 -0.90625,0.78125 -2.54687,0.78125 -1.65625,0 -2.5625,-0.59375 -0.89063,-0.609375 -1.20313,-1.703125 z m 8.1511,0 1.98437,-0.3125 q 0.26563,0.625 0.65625,0.890625 0.39063,0.265625 1.07813,0.265625 0.70312,0 1.125,-0.328125 0.28125,-0.203125 0.28125,-0.515625 0,-0.203125 -0.14063,-0.375 -0.15625,-0.15625 -0.85937,-0.390625 -1.85938,-0.609375 -2.29688,-0.96875 -0.70312,-0.5625 -0.70312,-1.453125 0,-0.90625 0.67187,-1.5625 0.9375,-0.90625 2.79688,-0.90625 1.46875,0 2.21875,0.546875 0.75,0.53125 0.95312,1.4375 l -1.90625,0.34375 q -0.14062,-0.421875 -0.48437,-0.625 -0.45313,-0.28125 -1.10938,-0.28125 -0.64062,0 -0.92187,0.21875 -0.28125,0.203125 -0.28125,0.484375 0,0.28125 0.28125,0.46875 0.1875,0.125 1.15625,0.40625 1.5,0.4375 2.01562,0.859375 0.71875,0.59375 0.71875,1.4375 0,1.078125 -0.92187,1.875 -0.90625,0.78125 -2.54688,0.78125 -1.65625,0 -2.5625,-0.59375 -0.89062,-0.609375 -1.20312,-1.703125 z m 8.40112,2.125 2.1875,-10.484375 h 7.34375 l -0.375,1.75 h -5.17188 l -0.53125,2.515625 h 5.07813 l -0.35938,1.75 h -5.07812 l -0.9375,4.46875 z m 9.26514,-3.15625 q 0,-2.109375 1.1875,-3.359375 1.1875,-1.265625 3.125,-1.265625 1.6875,0 2.625,0.9375 0.95312,0.921875 0.95312,2.484375 0,1.84375 -1.1875,3.1875 -1.17187,1.34375 -3.15625,1.34375 -1.07812,0 -1.90625,-0.421875 -0.82812,-0.4375 -1.23437,-1.21875 -0.40625,-0.78125 -0.40625,-1.6875 z m 5.84375,-1.46875 q 0,-0.734375 -0.42188,-1.171875 -0.42187,-0.4375 -1.09375,-0.4375 -0.67187,0 -1.1875,0.421875 -0.51562,0.40625 -0.79687,1.1875 -0.28125,0.78125 -0.28125,1.4375 0,0.8125 0.4375,1.296875 0.4375,0.484375 1.125,0.484375 0.84375,0 1.40625,-0.71875 0.8125,-1.03125 0.8125,-2.5 z m 4.2807,-2.96875 h 1.92187 l -0.3125,1.46875 q 1.07813,-1.65625 2.32813,-1.65625 0.4375,0 0.95312,0.21875 l -0.79687,1.6875 q -0.28125,-0.09375 -0.59375,-0.09375 -0.53125,0 -1.07813,0.40625 -0.54687,0.390625 -0.85937,1.0625 -0.29688,0.671875 -0.59375,2.109375 l -0.5,2.390625 h -2.0625 z m 11.10992,5.28125 h -4.15625 l -1.26562,2.3125 h -2.21875 l 5.9375,-10.484375 h 2.40625 l 1.70312,10.484375 h -2.04687 z m -0.26562,-1.75 -0.60938,-4.21875 -2.53125,4.21875 z m 3.95923,4.0625 2.1875,-10.484375 h 2.04687 l -2.1875,10.484375 z m 4.07202,0 2.1875,-10.484375 h 2.04687 l -2.1875,10.484375 z"
       fill-rule="nonzero"
       id="path13" />
    <path
       fill="#000000"
       fill-opacity="0"
       d="M 36.136482,52.658794 H 218.87665 V 246.76902 H 36.136482 Z"
       fill-rule="evenodd"
       id="path15" />
    <path
       stroke="#4c1130"
       stroke-width="1"
       stroke-linejoin="round"
       stroke-linecap="butt"
       stroke-dasharray="4, 3"
       d="M 36.136482,52.658794 H 218.87665 V 246.76902 H 36.136482 Z"
       fill-rule="evenodd"
       id="path17" />
    <path
       fill="#4c1130"
       d="m 49.941315,74.45879 2,-9.546875 h 3.96875 q 1.046875,0 1.5625,0.25 0.515625,0.234375 0.84375,0.8125 0.34375,0.578125 0.34375,1.28125 0,0.59375 -0.25,1.21875 -0.234375,0.609375 -0.609375,1 -0.359375,0.390625 -0.734375,0.59375 -0.375,0.203125 -0.8125,0.296875 -0.90625,0.21875 -1.84375,0.21875 H 52.01944 l -0.8125,3.875 z m 2.3125,-4.953125 h 2.09375 q 1.21875,0 1.796875,-0.265625 0.578125,-0.265625 0.921875,-0.796875 0.34375,-0.546875 0.34375,-1.15625 0,-0.46875 -0.1875,-0.75 -0.1875,-0.296875 -0.515625,-0.4375 Q 56.378815,65.95879 55.441315,65.95879 H 52.98819 Z m 6.43663,4.953125 1.453125,-6.90625 h 1.03125 l -0.28125,1.40625 q 0.53125,-0.796875 1.03125,-1.171875 0.515625,-0.390625 1.046875,-0.390625 0.359375,0 0.875,0.25 l -0.484375,1.09375 q -0.3125,-0.21875 -0.671875,-0.21875 -0.625,0 -1.28125,0.6875 -0.640625,0.6875 -1.015625,2.484375 l -0.578125,2.765625 z m 4.65712,-2.625 q 0,-2.015625 1.1875,-3.34375 0.984375,-1.09375 2.578125,-1.09375 1.25,0 2.015625,0.78125 0.765625,0.78125 0.765625,2.109375 0,1.1875 -0.484375,2.21875 -0.484375,1.015625 -1.375,1.5625 -0.890625,0.546875 -1.875,0.546875 -0.796875,0 -1.46875,-0.34375 -0.65625,-0.34375 -1,-0.96875 -0.34375,-0.640625 -0.34375,-1.46875 z m 1.171875,-0.109375 q 0,0.96875 0.46875,1.484375 0.46875,0.5 1.1875,0.5 0.375,0 0.75,-0.15625 0.375,-0.15625 0.6875,-0.46875 0.328125,-0.3125 0.546875,-0.703125 0.21875,-0.40625 0.359375,-0.875 0.203125,-0.640625 0.203125,-1.234375 0,-0.9375 -0.46875,-1.453125 -0.46875,-0.515625 -1.1875,-0.515625 -0.5625,0 -1.015625,0.265625 -0.453125,0.265625 -0.828125,0.78125 -0.359375,0.5 -0.53125,1.171875 -0.171875,0.671875 -0.171875,1.203125 z m 7.693726,-5.46875 0.28125,-1.34375 h 1.171875 l -0.28125,1.34375 z m -3.71875,10.796875 0.203125,-1 q 0.40625,0.109375 0.71875,0.109375 0.375,0 0.609375,-0.25 0.21875,-0.25 0.453125,-1.390625 l 1.453125,-6.96875 h 1.171875 l -1.484375,7.1875 q -0.28125,1.34375 -0.65625,1.828125 -0.484375,0.65625 -1.359375,0.65625 -0.453125,0 -1.109375,-0.171875 z m 5.33609,-2.59375 0.28125,-1.328125 h 1.328125 l -0.28125,1.328125 z"
       fill-rule="nonzero"
       id="path19" />
    <path
       fill="#4c1130"
       d="m 81.04898,74.45879 2,-9.546875 h 2.5625 q 1.078125,0 1.375,0.03125 0.59375,0.0625 1.0625,0.25 0.46875,0.1875 0.84375,0.515625 0.390625,0.328125 0.65625,0.796875 0.28125,0.453125 0.421875,1.0625 0.15625,0.59375 0.15625,1.3125 0,1.53125 -0.59375,2.734375 -0.578125,1.1875 -1.46875,1.890625 -0.6875,0.546875 -1.765625,0.8125 -0.609375,0.140625 -1.890625,0.140625 z m 2.28125,-1.53125 h 1 q 1.078125,0 1.5625,-0.125 0.484375,-0.140625 0.890625,-0.515625 0.578125,-0.515625 0.96875,-1.390625 0.40625,-0.890625 0.40625,-2.078125 0,-1.015625 -0.328125,-1.515625 -0.328125,-0.515625 -0.8125,-0.6875 -0.34375,-0.125 -1.203125,-0.125 H 84.67398 Z m 9.297028,-8.015625 h 1.859375 l -0.34375,1.703125 h -1.875 z m -0.546875,2.640625 h 1.859375 l -1.4375,6.90625 h -1.875 z m 2.156113,7.265625 1.96875,0.296875 q 0,0.296875 0.09375,0.4375 0.109375,0.15625 0.328125,0.265625 0.21875,0.109375 0.59375,0.109375 0.59375,0 0.9375,-0.234375 0.28125,-0.1875 0.4375,-0.578125 0.109375,-0.265625 0.265625,-1.109375 l 0.07813,-0.328125 q -0.96875,0.8125 -2.015625,0.8125 -1.015625,0 -1.671875,-0.71875 -0.640625,-0.71875 -0.640625,-2.09375 0,-1.21875 0.4375,-2.234375 0.453125,-1.015625 1.25,-1.53125 0.796875,-0.53125 1.625,-0.53125 0.703125,0 1.265625,0.375 0.578125,0.359375 0.890634,1.015625 l 0.26562,-1.21875 h 1.75 l -1.20312,5.75 q -0.28125,1.390625 -0.48438,1.984375 -0.20312,0.59375 -0.468754,0.9375 -0.25,0.359375 -0.65625,0.59375 -0.390625,0.234375 -0.9375,0.34375 -0.53125,0.109375 -1.171875,0.109375 -1.46875,0 -2.21875,-0.515625 -0.734375,-0.5 -0.734375,-1.65625 0,-0.125 0.01563,-0.28125 z m 2.203125,-3.328125 q 0,0.78125 0.34375,1.203125 0.359375,0.40625 0.890625,0.40625 0.484375,0 0.9375,-0.375 0.46875,-0.375 0.703125,-1.046875 0.25,-0.6875 0.25,-1.328125 0,-0.734375 -0.390625,-1.171875 -0.390625,-0.453125 -0.921875,-0.453125 -0.5,0 -0.921875,0.390625 -0.40625,0.390625 -0.6875,1.21875 -0.203125,0.640625 -0.203125,1.15625 z m 8.031979,-6.578125 h 1.85938 l -0.34375,1.703125 h -1.875 z m -0.54687,2.640625 h 1.85937 l -1.4375,6.90625 h -1.875 z m 2.71861,1.375 0.28125,-1.375 h 0.92188 l 0.21875,-1.109375 2.14062,-1.296875 -0.5,2.40625 h 1.14063 l -0.28125,1.375 h -1.14063 l -0.60937,2.90625 q -0.17188,0.78125 -0.17188,0.890625 0,0.21875 0.14063,0.34375 0.14062,0.109375 0.5,0.109375 0.125,0 0.60937,-0.04687 l -0.28125,1.390625 q -0.48437,0.09375 -1,0.09375 -0.98437,0 -1.4375,-0.375 -0.4375,-0.375 -0.4375,-1.0625 0,-0.3125 0.23438,-1.46875 l 0.57812,-2.78125 z m 6.61025,0.578125 -1.82813,-0.15625 q 0.3125,-0.921875 1.09375,-1.4375 0.78125,-0.53125 2.0625,-0.53125 1.32813,0 1.96875,0.546875 0.64063,0.53125 0.64063,1.3125 0,0.3125 -0.0625,0.671875 -0.0469,0.34375 -0.375,1.828125 -0.28125,1.234375 -0.28125,1.734375 0,0.4375 0.15625,0.984375 h -1.8125 q -0.10938,-0.375 -0.14063,-0.78125 -0.40625,0.453125 -0.9375,0.703125 -0.53125,0.234375 -1.07812,0.234375 -0.85938,0 -1.42188,-0.5625 -0.5625,-0.5625 -0.5625,-1.4375 0,-1 0.60938,-1.578125 0.625,-0.59375 2.20312,-0.71875 1.34375,-0.109375 1.78125,-0.265625 0.125,-0.390625 0.125,-0.625 0,-0.3125 -0.25,-0.5 -0.23437,-0.203125 -0.70312,-0.203125 -0.5,0 -0.79688,0.203125 -0.28125,0.203125 -0.39062,0.578125 z m 1.78125,1.734375 q -0.17188,0.04687 -0.45313,0.07813 -1.40625,0.171875 -1.84375,0.5 -0.29687,0.234375 -0.29687,0.625 0,0.328125 0.23437,0.5625 0.23438,0.21875 0.60938,0.21875 0.42187,0 0.79687,-0.203125 0.375,-0.203125 0.5625,-0.53125 0.1875,-0.328125 0.32813,-1 z m 2.97497,3.21875 2,-9.546875 h 1.85938 l -1.98438,9.546875 z m 9.39035,0 h -1.95312 l 1.98437,-9.546875 h 3.89063 q 1.03125,0 1.625,0.25 0.60937,0.25 0.95312,0.8125 0.35938,0.5625 0.35938,1.34375 0,0.71875 -0.28125,1.40625 -0.28125,0.671875 -0.6875,1.09375 -0.40625,0.40625 -0.875,0.625 -0.46875,0.203125 -1.26563,0.3125 -0.45312,0.0625 -1.73437,0.0625 h -1.25 z m 1.09375,-5.21875 h 0.60938 q 1.54687,0 2.0625,-0.1875 0.53125,-0.203125 0.82812,-0.625 0.29688,-0.4375 0.29688,-0.953125 0,-0.34375 -0.15625,-0.5625 -0.14063,-0.21875 -0.42188,-0.3125 -0.28125,-0.109375 -1.23437,-0.109375 h -1.40625 z m 7.17101,-1.6875 h 1.75 l -0.28125,1.328125 q 0.96875,-1.5 2.10937,-1.5 0.40625,0 0.85938,0.203125 l -0.70313,1.53125 q -0.26562,-0.09375 -0.54687,-0.09375 -0.48438,0 -0.98438,0.375 -0.5,0.359375 -0.78125,0.96875 -0.26562,0.609375 -0.54687,1.921875 l -0.45313,2.171875 h -1.875 z m 10.5774,4.03125 h -4.6875 q 0,0.109375 0,0.171875 0,0.6875 0.39063,1.109375 0.39062,0.421875 0.95312,0.421875 0.9375,0 1.45313,-0.96875 l 1.67187,0.28125 q -0.48437,1.015625 -1.3125,1.515625 -0.8125,0.5 -1.82812,0.5 -1.39063,0 -2.26563,-0.875 -0.85937,-0.875 -0.85937,-2.328125 0,-1.421875 0.78125,-2.53125 1.07812,-1.5 3.0625,-1.5 1.26562,0 2.01562,0.796875 0.75,0.78125 0.75,2.1875 0,0.671875 -0.125,1.21875 z m -1.57812,-1.140625 q 0,-0.125 0,-0.1875 0,-0.765625 -0.34375,-1.140625 -0.34375,-0.390625 -0.92188,-0.390625 -0.57812,0 -1.04687,0.4375 -0.45313,0.421875 -0.60938,1.28125 z m 2.02185,2.078125 1.8125,-0.28125 q 0.23437,0.578125 0.59375,0.8125 0.35937,0.234375 0.96875,0.234375 0.64062,0 1.03125,-0.28125 0.26562,-0.203125 0.26562,-0.484375 0,-0.1875 -0.14062,-0.328125 -0.14063,-0.15625 -0.78125,-0.359375 -1.6875,-0.5625 -2.09375,-0.875 -0.625,-0.515625 -0.625,-1.328125 0,-0.828125 0.60937,-1.421875 0.85938,-0.828125 2.53125,-0.828125 1.34375,0 2.01563,0.5 0.6875,0.484375 0.875,1.3125 l -1.73438,0.296875 q -0.125,-0.375 -0.4375,-0.5625 -0.42187,-0.25 -1,-0.25 -0.59375,0 -0.85937,0.203125 -0.25,0.1875 -0.25,0.4375 0,0.265625 0.26562,0.421875 0.15625,0.109375 1.04688,0.375 1.375,0.390625 1.82812,0.78125 0.65625,0.53125 0.65625,1.296875 0,0.984375 -0.82812,1.703125 -0.82813,0.71875 -2.32813,0.71875 -1.5,0 -2.32812,-0.546875 -0.8125,-0.546875 -1.09375,-1.546875 z m 14.38123,-0.9375 h -4.6875 q 0,0.109375 0,0.171875 0,0.6875 0.39062,1.109375 0.39063,0.421875 0.95313,0.421875 0.9375,0 1.45312,-0.96875 l 1.67188,0.28125 q -0.48438,1.015625 -1.3125,1.515625 -0.8125,0.5 -1.82813,0.5 -1.39062,0 -2.26562,-0.875 -0.85938,-0.875 -0.85938,-2.328125 0,-1.421875 0.78125,-2.53125 1.07813,-1.5 3.0625,-1.5 1.26563,0 2.01563,0.796875 0.75,0.78125 0.75,2.1875 0,0.671875 -0.125,1.21875 z m -1.57813,-1.140625 q 0,-0.125 0,-0.1875 0,-0.765625 -0.34375,-1.140625 -0.34375,-0.390625 -0.92187,-0.390625 -0.57813,0 -1.04688,0.4375 -0.45312,0.421875 -0.60937,1.28125 z m 3.59998,-2.890625 h 1.75 l -0.28125,1.328125 q 0.96875,-1.5 2.10937,-1.5 0.40625,0 0.85938,0.203125 l -0.70313,1.53125 q -0.26562,-0.09375 -0.54687,-0.09375 -0.48438,0 -0.98438,0.375 -0.5,0.359375 -0.78125,0.96875 -0.26562,0.609375 -0.54687,1.921875 L 163.511,74.45879 h -1.875 z m 7.29617,6.90625 h -1.60938 l -1.375,-6.90625 h 1.82813 l 0.48437,3.015625 q 0.20313,1.21875 0.25,1.625 0.0469,-0.109375 0.4375,-0.84375 0.40625,-0.734375 0.5,-0.890625 l 1.71875,-2.90625 h 2.01563 z m 6.59997,-4.953125 -1.82812,-0.15625 q 0.3125,-0.921875 1.09375,-1.4375 0.78125,-0.53125 2.0625,-0.53125 1.32812,0 1.96875,0.546875 0.64062,0.53125 0.64062,1.3125 0,0.3125 -0.0625,0.671875 -0.0469,0.34375 -0.375,1.828125 -0.28125,1.234375 -0.28125,1.734375 0,0.4375 0.15625,0.984375 h -1.8125 q -0.10937,-0.375 -0.14062,-0.78125 -0.40625,0.453125 -0.9375,0.703125 -0.53125,0.234375 -1.07813,0.234375 -0.85937,0 -1.42187,-0.5625 -0.5625,-0.5625 -0.5625,-1.4375 0,-1 0.60937,-1.578125 0.625,-0.59375 2.20313,-0.71875 1.34375,-0.109375 1.78125,-0.265625 0.125,-0.390625 0.125,-0.625 0,-0.3125 -0.25,-0.5 -0.23438,-0.203125 -0.70313,-0.203125 -0.5,0 -0.79687,0.203125 -0.28125,0.203125 -0.39063,0.578125 z m 1.78125,1.734375 q -0.17187,0.04687 -0.45312,0.07813 -1.40625,0.171875 -1.84375,0.5 -0.29688,0.234375 -0.29688,0.625 0,0.328125 0.23438,0.5625 0.23437,0.21875 0.60937,0.21875 0.42188,0 0.79688,-0.203125 0.375,-0.203125 0.5625,-0.53125 0.1875,-0.328125 0.32812,-1 z m 3.45936,-2.3125 0.28125,-1.375 h 0.92187 l 0.21875,-1.109375 2.14063,-1.296875 -0.5,2.40625 h 1.14062 l -0.28125,1.375 h -1.14062 l -0.60938,2.90625 q -0.17187,0.78125 -0.17187,0.890625 0,0.21875 0.14062,0.34375 0.14063,0.109375 0.5,0.109375 0.125,0 0.60938,-0.04687 l -0.28125,1.390625 q -0.48438,0.09375 -1,0.09375 -0.98438,0 -1.4375,-0.375 -0.4375,-0.375 -0.4375,-1.0625 0,-0.3125 0.23437,-1.46875 l 0.57813,-2.78125 z m 5.9696,-4.015625 h 1.85937 l -0.34375,1.703125 h -1.875 z m -0.54688,2.640625 h 1.85938 l -1.4375,6.90625 h -1.875 z m 2.53113,4.03125 q 0,-1.921875 1.07813,-3.0625 1.07812,-1.140625 2.84375,-1.140625 1.53125,0 2.39062,0.84375 0.85938,0.84375 0.85938,2.265625 0,1.6875 -1.07813,2.90625 -1.0625,1.21875 -2.875,1.21875 -0.96875,0 -1.73437,-0.390625 -0.75,-0.390625 -1.125,-1.09375 -0.35938,-0.71875 -0.35938,-1.546875 z m 5.3125,-1.328125 q 0,-0.671875 -0.39062,-1.0625 -0.375,-0.40625 -0.98438,-0.40625 -0.60937,0 -1.07812,0.375 -0.46875,0.375 -0.73438,1.09375 -0.25,0.703125 -0.25,1.3125 0,0.734375 0.39063,1.171875 0.40625,0.4375 1.01562,0.4375 0.78125,0 1.29688,-0.65625 0.73437,-0.9375 0.73437,-2.265625 z m 4.01636,-2.703125 h 1.78125 l -0.1875,0.890625 q 0.65625,-0.578125 1.23438,-0.8125 0.57812,-0.25 1.21875,-0.25 0.84375,0 1.32812,0.5 0.5,0.484375 0.5,1.28125 0,0.375 -0.20312,1.390625 l -0.8125,3.90625 h -1.875 l 0.82812,-3.921875 q 0.17188,-0.875 0.17188,-1.046875 0,-0.359375 -0.21875,-0.5625 -0.20313,-0.203125 -0.57813,-0.203125 -0.40625,0 -0.90625,0.34375 -0.5,0.34375 -0.79687,0.90625 -0.20313,0.40625 -0.46875,1.640625 l -0.59375,2.84375 h -1.85938 z"
       fill-rule="nonzero"
       id="path21" />
    <path
       fill="#cfe2f3"
       d="m 71.244095,148.55511 c 0,6.20342 27.27185,11.23228 60.913385,11.23228 33.64153,0 60.91338,-5.02886 60.91338,-11.23228 v 67.39371 c 0,6.20342 -27.27185,11.23228 -60.91338,11.23228 -33.641535,0 -60.913385,-5.02886 -60.913385,-11.23228 z"
       fill-rule="evenodd"
       id="path23" />
    <path
       fill="#e2edf7"
       d="m 71.244095,148.55511 c 0,-6.20342 27.27185,-11.23228 60.913385,-11.23228 33.64153,0 60.91338,5.02886 60.91338,11.23228 v 0 c 0,6.20342 -27.27185,11.23228 -60.91338,11.23228 -33.641535,0 -60.913385,-5.02886 -60.913385,-11.23228 z"
       fill-rule="evenodd"
       id="path25" />
    <path
       fill="#000000"
       fill-opacity="0"
       d="m 193.07086,148.55511 v 0 c 0,6.20342 -27.27185,11.23228 -60.91338,11.23228 -33.641536,0 -60.913386,-5.02886 -60.913386,-11.23228 0,-6.20342 27.27185,-11.23228 60.913386,-11.23228 33.64153,0 60.91338,5.02886 60.91338,11.23228 v 67.39371 c 0,6.20342 -27.27185,11.23228 -60.91338,11.23228 -33.641536,0 -60.913386,-5.02886 -60.913386,-11.23228 v -67.39371"
       fill-rule="evenodd"
       id="path27" />
    <path
       stroke="#000000"
       stroke-width="1"
       stroke-linejoin="round"
       stroke-linecap="butt"
       d="m 193.07086,148.55511 v 0 c 0,6.20342 -27.27185,11.23228 -60.91338,11.23228 -33.641536,0 -60.913386,-5.02886 -60.913386,-11.23228 0,-6.20342 27.27185,-11.23228 60.913386,-11.23228 33.64153,0 60.91338,5.02886 60.91338,11.23228 v 67.39371 c 0,6.20342 -27.27185,11.23228 -60.91338,11.23228 -33.641536,0 -60.913386,-5.02886 -60.913386,-11.23228 v -67.39371"
       fill-rule="evenodd"
       id="path29" />
    <path
       fill="#000000"
       d="m 85.8931,194.78812 v -13.35938 h 5.046875 q 1.328125,0 2.03125,0.125 0.96875,0.17188 1.640625,0.64063 0.671875,0.45312 1.078125,1.28125 0.40625,0.82812 0.40625,1.82812 0,1.70313 -1.09375,2.89063 -1.078125,1.17187 -3.921875,1.17187 h -3.421875 v 5.42188 z m 1.765625,-7 h 3.453125 q 1.71875,0 2.4375,-0.64063 0.71875,-0.64062 0.71875,-1.79687 0,-0.84375 -0.421875,-1.4375 -0.421875,-0.59375 -1.125,-0.78125 -0.4375,-0.125 -1.640625,-0.125 h -3.421875 z m 10.459198,7 v -9.67188 h 1.46875 v 1.46875 q 0.562497,-1.03125 1.031247,-1.35937 0.48438,-0.32813 1.0625,-0.32813 0.82813,0 1.6875,0.53125 l -0.5625,1.51563 q -0.60937,-0.35938 -1.20312,-0.35938 -0.54688,0 -0.96875,0.32813 -0.42188,0.32812 -0.60938,0.89062 -0.281247,0.875 -0.281247,1.92188 v 5.0625 z m 12.853307,-3.10938 1.6875,0.20313 q -0.40625,1.48437 -1.48438,2.3125 -1.07812,0.8125 -2.76562,0.8125 -2.125,0 -3.375,-1.29688 -1.23438,-1.3125 -1.23438,-3.67187 0,-2.45313 1.25,-3.79688 1.26563,-1.34375 3.26563,-1.34375 1.9375,0 3.15625,1.32813 1.23437,1.3125 1.23437,3.70312 0,0.15625 0,0.4375 h -7.21875 q 0.0937,1.59375 0.90625,2.45313 0.8125,0.84375 2.01563,0.84375 0.90625,0 1.54687,-0.46875 0.64063,-0.48438 1.01563,-1.51563 z m -5.39063,-2.65625 h 5.40625 q -0.10937,-1.21875 -0.625,-1.82812 -0.78125,-0.95313 -2.03125,-0.95313 -1.125,0 -1.90625,0.76563 -0.76562,0.75 -0.84375,2.01562 z m 8.48509,2.875 1.625,-0.25 q 0.125,0.96875 0.75,1.5 0.625,0.51563 1.75,0.51563 1.125,0 1.67188,-0.45313 0.54687,-0.46875 0.54687,-1.09375 0,-0.54687 -0.48437,-0.875 -0.32813,-0.21875 -1.67188,-0.54687 -1.8125,-0.46875 -2.51562,-0.79688 -0.6875,-0.32812 -1.04688,-0.90625 -0.35937,-0.59375 -0.35937,-1.3125 0,-0.64062 0.29687,-1.1875 0.29688,-0.5625 0.8125,-0.92187 0.375,-0.28125 1.03125,-0.46875 0.67188,-0.20313 1.42188,-0.20313 1.14062,0 2,0.32813 0.85937,0.32812 1.26562,0.89062 0.42188,0.5625 0.57813,1.5 l -1.60938,0.21875 q -0.10937,-0.75 -0.64062,-1.17187 -0.51563,-0.42188 -1.46875,-0.42188 -1.14063,0 -1.625,0.375 -0.46875,0.375 -0.46875,0.875 0,0.3125 0.1875,0.57813 0.20312,0.26562 0.64062,0.4375 0.23438,0.0937 1.4375,0.42187 1.75,0.45313 2.4375,0.75 0.6875,0.29688 1.07813,0.85938 0.39062,0.5625 0.39062,1.40625 0,0.82812 -0.48437,1.54687 -0.46875,0.71875 -1.375,1.125 -0.90625,0.39063 -2.04688,0.39063 -1.875,0 -2.875,-0.78125 -0.98437,-0.78125 -1.25,-2.32813 z m 16.60938,-0.21875 1.6875,0.20313 q -0.40625,1.48437 -1.48438,2.3125 -1.07812,0.8125 -2.76562,0.8125 -2.125,0 -3.375,-1.29688 -1.23438,-1.3125 -1.23438,-3.67187 0,-2.45313 1.25,-3.79688 1.26563,-1.34375 3.26563,-1.34375 1.9375,0 3.15625,1.32813 1.23437,1.3125 1.23437,3.70312 0,0.15625 0,0.4375 h -7.21875 q 0.0937,1.59375 0.90625,2.45313 0.8125,0.84375 2.01563,0.84375 0.90625,0 1.54687,-0.46875 0.64063,-0.48438 1.01563,-1.51563 z m -5.39063,-2.65625 h 5.40625 q -0.10937,-1.21875 -0.625,-1.82812 -0.78125,-0.95313 -2.03125,-0.95313 -1.125,0 -1.90625,0.76563 -0.76562,0.75 -0.84375,2.01562 z m 9.12572,5.76563 v -9.67188 h 1.46875 v 1.46875 q 0.5625,-1.03125 1.03125,-1.35937 0.48437,-0.32813 1.0625,-0.32813 0.82812,0 1.6875,0.53125 l -0.5625,1.51563 q -0.60938,-0.35938 -1.20313,-0.35938 -0.54687,0 -0.96875,0.32813 -0.42187,0.32812 -0.60937,0.89062 -0.28125,0.875 -0.28125,1.92188 v 5.0625 z m 8.9158,0 -3.6875,-9.67188 h 1.73438 l 2.07812,5.79688 q 0.32813,0.9375 0.625,1.9375 0.20313,-0.76563 0.60938,-1.82813 l 2.14062,-5.90625 h 1.6875 l -3.65625,9.67188 z m 12.95313,-1.1875 q -0.92188,0.76562 -1.76563,1.09375 -0.82812,0.3125 -1.79687,0.3125 -1.59375,0 -2.45313,-0.78125 -0.85937,-0.78125 -0.85937,-1.98438 0,-0.71875 0.32812,-1.29687 0.32813,-0.59375 0.84375,-0.9375 0.53125,-0.35938 1.1875,-0.54688 0.46875,-0.125 1.45313,-0.25 1.98437,-0.23437 2.92187,-0.5625 0.0156,-0.34375 0.0156,-0.42187 0,-1 -0.46875,-1.42188 -0.625,-0.54687 -1.875,-0.54687 -1.15625,0 -1.70313,0.40625 -0.54687,0.40625 -0.8125,1.42187 l -1.60937,-0.21875 q 0.21875,-1.01562 0.71875,-1.64062 0.5,-0.64063 1.45312,-0.98438 0.95313,-0.34375 2.1875,-0.34375 1.25,0 2.01563,0.29688 0.78125,0.28125 1.14062,0.73437 0.375,0.4375 0.51563,1.10938 0.0781,0.42187 0.0781,1.51562 v 2.1875 q 0,2.28125 0.10938,2.89063 0.10937,0.59375 0.40625,1.15625 h -1.70313 q -0.26562,-0.51563 -0.32812,-1.1875 z m -0.14063,-3.67188 q -0.89062,0.375 -2.67187,0.625 -1.01563,0.14063 -1.4375,0.32813 -0.42188,0.1875 -0.65625,0.53125 -0.21875,0.34375 -0.21875,0.78125 0,0.65625 0.5,1.09375 0.5,0.4375 1.45312,0.4375 0.9375,0 1.67188,-0.40625 0.75,-0.42188 1.09375,-1.14063 0.26562,-0.5625 0.26562,-1.64062 z m 10.46947,4.85938 v -1.21875 q -0.90625,1.4375 -2.70313,1.4375 -1.15625,0 -2.125,-0.64063 -0.96875,-0.64062 -1.5,-1.78125 -0.53125,-1.14062 -0.53125,-2.625 0,-1.45312 0.48438,-2.625 0.48437,-1.1875 1.4375,-1.8125 0.96875,-0.625 2.17187,-0.625 0.875,0 1.54688,0.375 0.6875,0.35938 1.10937,0.95313 v -4.79688 h 1.64063 v 13.35938 z m -5.17188,-4.82813 q 0,1.85938 0.78125,2.78125 0.78125,0.92188 1.84375,0.92188 1.07813,0 1.82813,-0.875 0.75,-0.89063 0.75,-2.6875 0,-1.98438 -0.76563,-2.90625 -0.76562,-0.9375 -1.89062,-0.9375 -1.07813,0 -1.8125,0.89062 -0.73438,0.89063 -0.73438,2.8125 z m 8.6726,-0.0156 q 0,-2.6875 1.48437,-3.96875 1.25,-1.07813 3.04688,-1.07813 2,0 3.26562,1.3125 1.26563,1.29688 1.26563,3.60938 0,1.85937 -0.5625,2.9375 -0.5625,1.0625 -1.64063,1.65625 -1.0625,0.59375 -2.32812,0.59375 -2.03125,0 -3.28125,-1.29688 -1.25,-1.3125 -1.25,-3.76562 z m 1.6875,0 q 0,1.85937 0.79687,2.79687 0.8125,0.92188 2.04688,0.92188 1.21875,0 2.03125,-0.92188 0.8125,-0.9375 0.8125,-2.84375 0,-1.79687 -0.8125,-2.71875 -0.8125,-0.92187 -2.03125,-0.92187 -1.23438,0 -2.04688,0.92187 -0.79687,0.90625 -0.79687,2.76563 z"
       fill-rule="nonzero"
       id="path31" />
    <path
       fill="#cfe2f3"
       d="m 306.13385,107.89895 v 0 c 0,3.70727 27.27185,6.7126 60.91339,6.7126 33.64154,0 60.91339,-3.00533 60.91339,-6.7126 v 40.2756 c 0,3.70726 -27.27185,6.7126 -60.91339,6.7126 -33.64154,0 -60.91339,-3.00534 -60.91339,-6.7126 z"
       fill-rule="evenodd"
       id="path33" />
    <path
       fill="#e2edf7"
       d="m 306.13385,107.89895 v 0 c 0,-3.70727 27.27185,-6.7126 60.91339,-6.7126 33.64154,0 60.91339,3.00533 60.91339,6.7126 v 0 c 0,3.70727 -27.27185,6.7126 -60.91339,6.7126 -33.64154,0 -60.91339,-3.00533 -60.91339,-6.7126 z"
       fill-rule="evenodd"
       id="path35" />
    <path
       fill="#000000"
       fill-opacity="0"
       d="m 427.96063,107.89895 v 0 c 0,3.70727 -27.27185,6.7126 -60.91339,6.7126 -33.64154,0 -60.91339,-3.00533 -60.91339,-6.7126 v 0 c 0,-3.70727 27.27185,-6.7126 60.91339,-6.7126 33.64154,0 60.91339,3.00533 60.91339,6.7126 v 40.2756 c 0,3.70726 -27.27185,6.7126 -60.91339,6.7126 -33.64154,0 -60.91339,-3.00534 -60.91339,-6.7126 v -40.2756"
       fill-rule="evenodd"
       id="path37" />
    <path
       stroke="#000000"
       stroke-width="1"
       stroke-linejoin="round"
       stroke-linecap="butt"
       d="m 427.96063,107.89895 v 0 c 0,3.70727 -27.27185,6.7126 -60.91339,6.7126 -33.64154,0 -60.91339,-3.00533 -60.91339,-6.7126 v 0 c 0,-3.70727 27.27185,-6.7126 60.91339,-6.7126 33.64154,0 60.91339,3.00533 60.91339,6.7126 v 40.2756 c 0,3.70726 -27.27185,6.7126 -60.91339,6.7126 -33.64154,0 -60.91339,-3.00534 -60.91339,-6.7126 v -40.2756"
       fill-rule="evenodd"
       id="path39" />
    <path
       fill="#000000"
       d="m 321.40952,138.31305 v -13.35938 h 9.01562 v 1.57812 h -7.25 v 4.14063 h 6.26563 v 1.57813 h -6.26563 v 6.0625 z m 11.09912,-11.46876 v -1.89062 h 1.64063 v 1.89062 z m 0,11.46876 v -9.67188 h 1.64063 v 9.67188 z m 4.09793,0 v -13.35938 h 1.64063 v 13.35938 z m 7.76984,-1.46875 0.23437,1.45312 q -0.6875,0.14063 -1.23437,0.14063 -0.89063,0 -1.39063,-0.28125 -0.48437,-0.28125 -0.6875,-0.73438 -0.20312,-0.46875 -0.20312,-1.9375 v -5.57812 h -1.20313 v -1.26563 h 1.20313 v -2.39063 l 1.625,-0.98437 v 3.375 h 1.65625 v 1.26563 h -1.65625 v 5.67187 q 0,0.6875 0.0781,0.89063 0.0937,0.20312 0.28125,0.32812 0.20313,0.10938 0.57813,0.10938 0.26562,0 0.71875,-0.0625 z m 1.58954,1.46875 v -9.67188 h 1.46875 v 1.46875 q 0.5625,-1.03125 1.03125,-1.35937 0.48437,-0.32813 1.0625,-0.32813 0.82812,0 1.6875,0.53125 l -0.5625,1.51563 q -0.60938,-0.35938 -1.20313,-0.35938 -0.54687,0 -0.96875,0.32813 -0.42187,0.32812 -0.60937,0.89062 -0.28125,0.875 -0.28125,1.92188 v 5.0625 z m 12.5408,-1.1875 q -0.92188,0.76562 -1.76563,1.09375 -0.82812,0.3125 -1.79687,0.3125 -1.59375,0 -2.45313,-0.78125 -0.85937,-0.78125 -0.85937,-1.98438 0,-0.71875 0.32812,-1.29687 0.32813,-0.59375 0.84375,-0.9375 0.53125,-0.35938 1.1875,-0.54688 0.46875,-0.125 1.45313,-0.25 1.98437,-0.23437 2.92187,-0.5625 0.0156,-0.34375 0.0156,-0.42187 0,-1 -0.46875,-1.42188 -0.625,-0.54687 -1.875,-0.54687 -1.15625,0 -1.70313,0.40625 -0.54687,0.40625 -0.8125,1.42187 l -1.60937,-0.21875 q 0.21875,-1.01562 0.71875,-1.64062 0.5,-0.64063 1.45312,-0.98438 0.95313,-0.34375 2.1875,-0.34375 1.25,0 2.01563,0.29688 0.78125,0.28125 1.14062,0.73437 0.375,0.4375 0.51563,1.10938 0.0781,0.42187 0.0781,1.51562 v 2.1875 q 0,2.28125 0.10938,2.89063 0.10937,0.59375 0.40625,1.15625 h -1.70313 q -0.26562,-0.51563 -0.32812,-1.1875 z m -0.14063,-3.67188 q -0.89062,0.375 -2.67187,0.625 -1.01563,0.14063 -1.4375,0.32813 -0.42188,0.1875 -0.65625,0.53125 -0.21875,0.34375 -0.21875,0.78125 0,0.65625 0.5,1.09375 0.5,0.4375 1.45312,0.4375 0.9375,0 1.67188,-0.40625 0.75,-0.42188 1.09375,-1.14063 0.26562,-0.5625 0.26562,-1.64062 z m 10.46949,4.85938 v -1.21875 q -0.90625,1.4375 -2.70313,1.4375 -1.15625,0 -2.125,-0.64063 -0.96875,-0.64062 -1.5,-1.78125 -0.53125,-1.14062 -0.53125,-2.625 0,-1.45312 0.48438,-2.625 0.48437,-1.1875 1.4375,-1.8125 0.96875,-0.625 2.17187,-0.625 0.875,0 1.54688,0.375 0.6875,0.35938 1.10937,0.95313 v -4.79688 h 1.64063 v 13.35938 z m -5.17188,-4.82813 q 0,1.85938 0.78125,2.78125 0.78125,0.92188 1.84375,0.92188 1.07813,0 1.82813,-0.875 0.75,-0.89063 0.75,-2.6875 0,-1.98438 -0.76563,-2.90625 -0.76562,-0.9375 -1.89062,-0.9375 -1.07813,0 -1.8125,0.89062 -0.73438,0.89063 -0.73438,2.8125 z m 8.67258,-0.0156 q 0,-2.6875 1.48437,-3.96875 1.25,-1.07813 3.04688,-1.07813 2,0 3.26562,1.3125 1.26563,1.29688 1.26563,3.60938 0,1.85937 -0.5625,2.9375 -0.5625,1.0625 -1.64063,1.65625 -1.0625,0.59375 -2.32812,0.59375 -2.03125,0 -3.28125,-1.29688 -1.25,-1.3125 -1.25,-3.76562 z m 1.6875,0 q 0,1.85937 0.79687,2.79687 0.8125,0.92188 2.04688,0.92188 1.21875,0 2.03125,-0.92188 0.8125,-0.9375 0.8125,-2.84375 0,-1.79687 -0.8125,-2.71875 -0.8125,-0.92187 -2.03125,-0.92187 -1.23438,0 -2.04688,0.92187 -0.79687,0.90625 -0.79687,2.76563 z m 17.60589,8.76562 q -1.35937,-1.70312 -2.29687,-4 -0.9375,-2.29687 -0.9375,-4.76562 0,-2.15625 0.70312,-4.14063 0.82813,-2.3125 2.53125,-4.59375 h 1.17188 q -1.09375,1.89062 -1.45313,2.70312 -0.54687,1.25001 -0.875,2.62501 -0.39062,1.70312 -0.39062,3.42187 0,4.375 2.71875,8.75 z"
       fill-rule="nonzero"
       id="path41" />
    <path
       fill="#000000"
       d="m 396.43613,126.82867 0.40625,-1.875 h 1.625 l -0.39063,1.875 z m -2.39063,11.48438 2.01563,-9.67187 h 1.65625 l -2.03125,9.67187 z m 4.20734,0 2.01563,-9.67187 h 1.5 l -0.35938,1.6875 q 0.96875,-1 1.8125,-1.45313 0.85938,-0.45312 1.73438,-0.45312 1.1875,0 1.84375,0.64062 0.67187,0.625 0.67187,1.70313 0,0.53125 -0.23437,1.6875 l -1.23438,5.85937 h -1.64062 l 1.28125,-6.125 q 0.1875,-0.89062 0.1875,-1.32812 0,-0.48438 -0.32813,-0.78125 -0.32812,-0.29688 -0.95312,-0.29688 -1.28125,0 -2.26563,0.90625 -0.98437,0.90625 -1.45312,3.125 l -0.9375,4.5 z"
       fill-rule="nonzero"
       id="path43" />
    <path
       fill="#000000"
       d="m 410.31604,142.23492 h -1.1875 q 2.73437,-4.375 2.73437,-8.75 0,-1.71875 -0.39062,-3.39063 -0.3125,-1.375 -0.875,-2.625 -0.35938,-0.82813 -1.46875,-2.73438 h 1.1875 q 1.70312,2.28125 2.53125,4.59376 0.6875,1.98437 0.6875,4.14062 0,2.46875 -0.9375,4.76563 -0.9375,2.29687 -2.28125,4 z"
       fill-rule="nonzero"
       id="path45" />
    <path
       fill="#cfe2f3"
       d="m 515.2126,114.08793 v 0 c 0,2.5679 30.50812,4.6496 68.14172,4.6496 37.63367,0 68.14172,-2.0817 68.14172,-4.6496 v 27.89764 c 0,2.5679 -30.50806,4.64961 -68.14172,4.64961 -37.63361,0 -68.14172,-2.08171 -68.14172,-4.64961 z"
       fill-rule="evenodd"
       id="path47" />
    <path
       fill="#e2edf7"
       d="m 515.2126,114.08793 v 0 c 0,-2.56791 30.50812,-4.6496 68.14172,-4.6496 37.63367,0 68.14172,2.08169 68.14172,4.6496 v 0 c 0,2.5679 -30.50806,4.6496 -68.14172,4.6496 -37.63361,0 -68.14172,-2.0817 -68.14172,-4.6496 z"
       fill-rule="evenodd"
       id="path49" />
    <path
       fill="#000000"
       fill-opacity="0"
       d="m 651.49603,114.08793 v 0 c 0,2.5679 -30.50806,4.6496 -68.14172,4.6496 -37.63361,0 -68.14172,-2.0817 -68.14172,-4.6496 v 0 c 0,-2.56791 30.50812,-4.6496 68.14172,-4.6496 37.63367,0 68.14172,2.08169 68.14172,4.6496 v 27.89764 c 0,2.5679 -30.50806,4.64961 -68.14172,4.64961 -37.63361,0 -68.14172,-2.08171 -68.14172,-4.64961 v -27.89764"
       fill-rule="evenodd"
       id="path51" />
    <path
       stroke="#000000"
       stroke-width="1"
       stroke-linejoin="round"
       stroke-linecap="butt"
       d="m 651.49603,114.08793 v 0 c 0,2.5679 -30.50806,4.6496 -68.14172,4.6496 -37.63361,0 -68.14172,-2.0817 -68.14172,-4.6496 v 0 c 0,-2.56791 30.50812,-4.6496 68.14172,-4.6496 37.63367,0 68.14172,2.08169 68.14172,4.6496 v 27.89764 c 0,2.5679 -30.50806,4.64961 -68.14172,4.64961 -37.63361,0 -68.14172,-2.08171 -68.14172,-4.64961 v -27.89764"
       fill-rule="evenodd"
       id="path53" />
    <path
       fill="#000000"
       d="m 534.1188,131.76967 1.39062,0.34375 q -0.4375,1.70312 -1.57812,2.60937 -1.125,0.89063 -2.76563,0.89063 -1.6875,0 -2.75,-0.6875 -1.0625,-0.6875 -1.625,-2 -0.54687,-1.3125 -0.54687,-2.8125 0,-1.64063 0.625,-2.85937 0.625,-1.21875 1.78125,-1.84375 1.15625,-0.64062 2.54687,-0.64062 1.5625,0 2.64063,0.8125 1.07812,0.79687 1.5,2.25 l -1.375,0.31249 q -0.35938,-1.14062 -1.0625,-1.65624 -0.6875,-0.53125 -1.73438,-0.53125 -1.21875,0 -2.03125,0.57812 -0.8125,0.57813 -1.14062,1.56249 -0.32813,0.96875 -0.32813,2.01563 0,1.32812 0.39063,2.32812 0.39062,1 1.21875,1.5 0.82812,0.48438 1.78125,0.48438 1.17187,0 1.96875,-0.67188 0.8125,-0.67187 1.09375,-1.98437 z m 2.45923,-0.125 q 0,-2.10938 1.17187,-3.125 0.98438,-0.84374 2.39063,-0.84374 1.57812,0 2.5625,1.03124 1,1.01562 1,2.82812 0,1.46875 -0.4375,2.3125 -0.4375,0.82813 -1.28125,1.29688 -0.84375,0.46875 -1.84375,0.46875 -1.59375,0 -2.57813,-1.01563 -0.98437,-1.03125 -0.98437,-2.95312 z m 1.32812,0 q 0,1.45312 0.625,2.1875 0.64063,0.71875 1.60938,0.71875 0.96875,0 1.59375,-0.71875 0.64062,-0.73438 0.64062,-2.23438 0,-1.40625 -0.64062,-2.125 -0.64063,-0.73437 -1.59375,-0.73437 -0.96875,0 -1.60938,0.71875 -0.625,0.71875 -0.625,2.1875 z m 7.30738,3.79687 v -7.59374 h 1.15625 v 1.07812 q 0.84375,-1.24999 2.42187,-1.24999 0.6875,0 1.26563,0.25 0.57812,0.23436 0.85937,0.64061 0.28125,0.40625 0.40625,0.95313 0.0625,0.35937 0.0625,1.25 v 4.67187 h -1.28125 v -4.625 q 0,-0.78125 -0.15625,-1.17187 -0.15625,-0.39063 -0.54687,-0.625 -0.375,-0.23438 -0.89063,-0.23438 -0.8125,0 -1.42187,0.53125 -0.59375,0.51563 -0.59375,1.96875 v 4.15625 z m 7.63549,-2.26562 1.26563,-0.20313 q 0.10937,0.76563 0.59375,1.17188 0.5,0.40625 1.375,0.40625 0.89062,0 1.3125,-0.35938 0.4375,-0.35937 0.4375,-0.84375 0,-0.4375 -0.375,-0.6875 -0.26563,-0.17187 -1.3125,-0.4375 -1.42188,-0.35937 -1.96875,-0.60937 -0.54688,-0.26563 -0.82813,-0.73438 -0.28125,-0.46875 -0.28125,-1.01562 0,-0.51563 0.21875,-0.9375 0.23438,-0.4375 0.64063,-0.73438 0.29687,-0.21874 0.8125,-0.35936 0.53125,-0.15625 1.125,-0.15625 0.89062,0 1.5625,0.26562 0.67187,0.24999 1,0.6875 0.32812,0.4375 0.4375,1.17187 l -1.25,0.17188 q -0.0937,-0.57813 -0.5,-0.90625 -0.40625,-0.34375 -1.15625,-0.34375 -0.89063,0 -1.28125,0.29687 -0.375,0.29688 -0.375,0.6875 0,0.25 0.15625,0.45313 0.15625,0.20312 0.5,0.34375 0.1875,0.0781 1.14062,0.32812 1.35938,0.35938 1.89063,0.59375 0.54687,0.23438 0.85937,0.6875 0.3125,0.4375 0.3125,1.09375 0,0.64063 -0.375,1.21875 -0.375,0.5625 -1.09375,0.875 -0.70312,0.3125 -1.59375,0.3125 -1.48437,0 -2.26562,-0.60937 -0.76563,-0.625 -0.98438,-1.82813 z m 7.35938,-1.53125 q 0,-2.10938 1.17187,-3.125 0.98438,-0.84374 2.39063,-0.84374 1.57812,0 2.5625,1.03124 1,1.01562 1,2.82812 0,1.46875 -0.4375,2.3125 -0.4375,0.82813 -1.28125,1.29688 -0.84375,0.46875 -1.84375,0.46875 -1.59375,0 -2.57813,-1.01563 -0.98437,-1.03125 -0.98437,-2.95312 z m 1.32812,0 q 0,1.45312 0.625,2.1875 0.64063,0.71875 1.60938,0.71875 0.96875,0 1.59375,-0.71875 0.64062,-0.73438 0.64062,-2.23438 0,-1.40625 -0.64062,-2.125 -0.64063,-0.73437 -1.59375,-0.73437 -0.96875,0 -1.60938,0.71875 -0.625,0.71875 -0.625,2.1875 z m 7.27613,3.79687 v -10.48436 h 1.28125 v 10.48436 z M 572.1,126.42593 v -1.46875 h 1.29688 v 1.46875 z m 0,9.01561 v -7.59374 h 1.29688 v 7.59374 z m 8.17804,0 v -0.95312 q -0.71875,1.125 -2.125,1.125 -0.90625,0 -1.67187,-0.5 -0.75,-0.5 -1.17188,-1.39063 -0.42187,-0.90625 -0.42187,-2.07812 0,-1.14063 0.375,-2.0625 0.39062,-0.92188 1.14062,-1.40625 0.76563,-0.49999 1.70313,-0.49999 0.6875,0 1.21875,0.29687 0.53125,0.28124 0.875,0.73437 v -3.74999 h 1.28125 v 10.48436 z m -4.0625,-3.79687 q 0,1.46875 0.60938,2.1875 0.625,0.71875 1.45312,0.71875 0.84375,0 1.4375,-0.6875 0.59375,-0.6875 0.59375,-2.10938 0,-1.5625 -0.60937,-2.28125 -0.59375,-0.73437 -1.48438,-0.73437 -0.84375,0 -1.42187,0.70312 -0.57813,0.70313 -0.57813,2.20313 z m 12.24487,2.85937 q -0.71875,0.60938 -1.375,0.85938 -0.65625,0.25 -1.42187,0.25 -1.25,0 -1.92188,-0.60938 -0.67187,-0.60937 -0.67187,-1.5625 0,-0.5625 0.25,-1.01562 0.25,-0.46875 0.65625,-0.75 0.42187,-0.28125 0.9375,-0.42188 0.375,-0.0937 1.14062,-0.1875 1.5625,-0.1875 2.29688,-0.45312 0.0156,-0.26563 0.0156,-0.32813 0,-0.79687 -0.375,-1.10937 -0.48437,-0.4375 -1.45312,-0.4375 -0.92188,0 -1.35938,0.32812 -0.42187,0.3125 -0.625,1.10938 l -1.26562,-0.17188 q 0.17187,-0.79687 0.5625,-1.29687 0.39062,-0.5 1.14062,-0.76562 0.75,-0.26562 1.71875,-0.26562 0.98438,0 1.59375,0.23437 0.60938,0.21874 0.89063,0.56249 0.28125,0.34375 0.40625,0.875 0.0625,0.32813 0.0625,1.1875 v 1.71875 q 0,1.79688 0.0781,2.28125 0.0781,0.46875 0.32813,0.90625 H 588.726 q -0.20313,-0.40625 -0.26563,-0.9375 z m -0.10937,-2.875 q -0.70313,0.28125 -2.09375,0.48438 -0.79688,0.10937 -1.125,0.26562 -0.32813,0.14063 -0.51563,0.42188 -0.17187,0.26562 -0.17187,0.59375 0,0.51562 0.39062,0.85937 0.39063,0.34375 1.14063,0.34375 0.73437,0 1.3125,-0.3125 0.59375,-0.32812 0.85937,-0.89062 0.20313,-0.4375 0.20313,-1.29688 z m 8.22925,3.8125 v -0.95312 q -0.71875,1.125 -2.125,1.125 -0.90625,0 -1.67188,-0.5 -0.75,-0.5 -1.17187,-1.39063 -0.42188,-0.90625 -0.42188,-2.07812 0,-1.14063 0.375,-2.0625 0.39063,-0.92188 1.14063,-1.40625 0.76562,-0.49999 1.70312,-0.49999 0.6875,0 1.21875,0.29687 0.53125,0.28124 0.875,0.73437 v -3.74999 h 1.28125 v 10.48436 z m -4.0625,-3.79687 q 0,1.46875 0.60937,2.1875 0.625,0.71875 1.45313,0.71875 0.84375,0 1.4375,-0.6875 0.59375,-0.6875 0.59375,-2.10938 0,-1.5625 -0.60938,-2.28125 -0.59375,-0.73437 -1.48437,-0.73437 -0.84375,0 -1.42188,0.70312 -0.57812,0.70313 -0.57812,2.20313 z m 6.80731,0 q 0,-2.10938 1.17187,-3.125 0.98438,-0.84374 2.39063,-0.84374 1.57812,0 2.5625,1.03124 1,1.01562 1,2.82812 0,1.46875 -0.4375,2.3125 -0.4375,0.82813 -1.28125,1.29688 -0.84375,0.46875 -1.84375,0.46875 -1.59375,0 -2.57813,-1.01563 -0.98437,-1.03125 -0.98437,-2.95312 z m 1.32812,0 q 0,1.45312 0.625,2.1875 0.64063,0.71875 1.60938,0.71875 0.96875,0 1.59375,-0.71875 0.64062,-0.73438 0.64062,-2.23438 0,-1.40625 -0.64062,-2.125 -0.64063,-0.73437 -1.59375,-0.73437 -0.96875,0 -1.60938,0.71875 -0.625,0.71875 -0.625,2.1875 z m 13.83246,6.875 q -1.0625,-1.34375 -1.79687,-3.14063 -0.73438,-1.8125 -0.73438,-3.73437 0,-1.70313 0.54688,-3.26563 0.64062,-1.81249 1.98437,-3.60936 h 0.92188 q -0.85938,1.48437 -1.14063,2.125 -0.4375,0.98437 -0.6875,2.06249 -0.29687,1.34375 -0.29687,2.6875 0,3.45312 2.125,6.875 z"
       fill-rule="nonzero"
       id="path55" />
    <path
       fill="#000000"
       d="m 616.6632,132.55092 q 0,-2.21875 1.3125,-3.67188 1.07812,-1.20311 2.82812,-1.20311 1.375,0 2.21875,0.85936 0.84375,0.85938 0.84375,2.3125 0,1.3125 -0.53125,2.4375 -0.53125,1.125 -1.51562,1.73438 -0.96875,0.59375 -2.04688,0.59375 -0.89062,0 -1.625,-0.375 -0.71875,-0.39063 -1.10937,-1.07813 -0.375,-0.6875 -0.375,-1.60937 z m 1.29687,-0.125 q 0,1.07812 0.51563,1.64062 0.51562,0.54688 1.29687,0.54688 0.42188,0 0.82813,-0.17188 0.40625,-0.17187 0.75,-0.51562 0.35937,-0.34375 0.60937,-0.78125 0.25,-0.4375 0.39063,-0.9375 0.23437,-0.71875 0.23437,-1.35938 0,-1.03125 -0.53125,-1.59375 -0.51562,-0.57812 -1.29687,-0.57812 -0.60938,0 -1.10938,0.29687 -0.5,0.28125 -0.90625,0.84375 -0.40625,0.54688 -0.59375,1.29688 -0.1875,0.73437 -0.1875,1.3125 z m 11.80738,1.64062 q -1.35938,1.54688 -2.79688,1.54688 -0.875,0 -1.42187,-0.5 -0.53125,-0.51563 -0.53125,-1.23438 0,-0.48437 0.23437,-1.65625 l 0.92188,-4.37499 h 1.29687 l -1.01562,4.85937 q -0.14063,0.60937 -0.14063,0.9375 0,0.4375 0.26563,0.67187 0.26562,0.23438 0.76562,0.23438 0.54688,0 1.0625,-0.26563 0.53125,-0.26562 0.90625,-0.70312 0.375,-0.45313 0.60938,-1.07813 0.15625,-0.39062 0.35937,-1.375 l 0.6875,-3.28124 h 1.29688 l -1.59375,7.59374 h -1.1875 z m 5.99481,0.32813 -0.21875,1.04687 q -0.46875,0.125 -0.90625,0.125 -0.76563,0 -1.21875,-0.375 -0.34375,-0.28125 -0.34375,-0.78125 0,-0.25 0.1875,-1.15625 l 0.92187,-4.40625 h -1.03125 l 0.20313,-0.99999 h 1.03125 l 0.39062,-1.875 1.48438,-0.89062 -0.57813,2.76562 h 1.26563 l -0.20313,0.99999 h -1.26562 l -0.89063,4.20313 q -0.15625,0.79687 -0.15625,0.95312 0,0.23438 0.125,0.35938 0.14063,0.10937 0.4375,0.10937 0.42188,0 0.76563,-0.0781 z"
       fill-rule="nonzero"
       id="path57" />
    <path
       fill="#000000"
       d="m 638.13116,138.51967 h -0.92187 q 2.14062,-3.42188 2.14062,-6.875 0,-1.34375 -0.3125,-2.67188 -0.25,-1.06249 -0.67187,-2.04686 -0.28125,-0.65625 -1.15625,-2.15625 h 0.92187 q 1.34375,1.79687 1.98438,3.60936 0.54687,1.5625 0.54687,3.26563 0,1.92187 -0.73437,3.73437 -0.73438,1.79688 -1.79688,3.14063 z"
       fill-rule="nonzero"
       id="path59" />
    <path
       fill="#000000"
       fill-opacity="0"
       d="m 286.00262,194.32545 h 393.88977 v 58.64568 H 286.00262 Z"
       fill-rule="evenodd"
       id="path61" />
    <path
       stroke="#4c1130"
       stroke-width="1"
       stroke-linejoin="round"
       stroke-linecap="butt"
       stroke-dasharray="4, 3"
       d="m 286.00262,194.32545 h 393.88977 v 58.64568 H 286.00262 Z"
       fill-rule="evenodd"
       id="path63" />
    <path
       fill="#4c1130"
       d="m 460.3608,217.40546 2.20312,-10.48438 h 4.375 q 1.14063,0 1.70313,0.26563 0.57812,0.25 0.9375,0.89062 0.375,0.625 0.375,1.40625 0,0.65625 -0.26563,1.32813 -0.25,0.67187 -0.65625,1.10937 -0.40625,0.4375 -0.82812,0.67188 -0.40625,0.21875 -0.89063,0.3125 -1,0.23437 -2.03125,0.23437 h -2.625 l -0.89062,4.26563 z m 2.54687,-5.45313 h 2.3125 q 1.34375,0 1.96875,-0.28125 0.64063,-0.29687 1.01563,-0.89062 0.375,-0.59375 0.375,-1.25 0,-0.51563 -0.20313,-0.84375 -0.20312,-0.32813 -0.5625,-0.48438 -0.35937,-0.15625 -1.40625,-0.15625 h -2.6875 z m 7.08811,5.45313 1.59375,-7.59375 h 1.14062 l -0.32812,1.54687 q 0.59375,-0.875 1.15625,-1.29687 0.5625,-0.42188 1.15625,-0.42188 0.375,0 0.9375,0.26563 l -0.51563,1.20312 q -0.34375,-0.23437 -0.75,-0.23437 -0.67187,0 -1.39062,0.76562 -0.71875,0.75 -1.125,2.71875 l -0.64063,3.04688 z m 5.11502,-2.89063 q 0,-2.21875 1.3125,-3.67187 1.07812,-1.20313 2.82812,-1.20313 1.375,0 2.21875,0.85938 0.84375,0.85937 0.84375,2.3125 0,1.3125 -0.53125,2.4375 -0.53125,1.125 -1.51562,1.73437 -0.96875,0.59375 -2.04688,0.59375 -0.89062,0 -1.625,-0.375 -0.71875,-0.39062 -1.10937,-1.07812 -0.375,-0.6875 -0.375,-1.60938 z m 1.29687,-0.125 q 0,1.07813 0.51563,1.64063 0.51562,0.54687 1.29687,0.54687 0.42188,0 0.82813,-0.17187 0.40625,-0.17188 0.75,-0.51563 0.35937,-0.34375 0.60937,-0.78125 0.25,-0.4375 0.39063,-0.9375 0.23437,-0.71875 0.23437,-1.35937 0,-1.03125 -0.53125,-1.59375 -0.51562,-0.57813 -1.29687,-0.57813 -0.60938,0 -1.10938,0.29688 -0.5,0.28125 -0.90625,0.84375 -0.40625,0.54687 -0.59375,1.29687 -0.1875,0.73438 -0.1875,1.3125 z m 8.46363,-6.01562 0.3125,-1.45313 h 1.28125 l -0.3125,1.45313 z m -4.10938,11.89062 0.23438,-1.10937 q 0.4375,0.125 0.78125,0.125 0.42187,0 0.67187,-0.28125 0.25,-0.26563 0.51563,-1.51563 l 1.59375,-7.67187 h 1.29687 l -1.65625,7.90625 q -0.29687,1.48437 -0.70312,2.01562 -0.53125,0.71875 -1.5,0.71875 -0.5,0 -1.23438,-0.1875 z m 5.88114,-2.85937 0.3125,-1.46875 h 1.46875 l -0.32813,1.46875 z m 8.14395,0 0.3125,-1.46875 h 1.46875 l -0.32813,1.46875 z m 4.07199,0 0.3125,-1.46875 h 1.46875 l -0.32813,1.46875 z m 4.07196,0 0.3125,-1.46875 h 1.46875 l -0.32813,1.46875 z"
       fill-rule="nonzero"
       id="path65" />
    <path
       fill="#000000"
       fill-opacity="0"
       d="m 193.07086,182.25197 c 28.26602,0 42.39819,-13.55118 56.53204,-27.10236 14.13385,-13.55119 28.26941,-27.10237 56.53882,-27.10237"
       fill-rule="evenodd"
       id="path67" />
    <path
       stroke="#000000"
       stroke-width="2"
       stroke-linejoin="round"
       stroke-linecap="butt"
       d="m 193.07086,182.25197 c 28.26602,0 42.39819,-13.55118 56.53206,-27.10236 7.06691,-6.7756 14.13429,-13.55119 22.96855,-18.63287 4.41718,-2.54085 9.27606,-4.65822 14.79749,-6.14038 2.76071,-0.74109 5.68707,-1.32337 8.80667,-1.72037 0.77991,-0.0993 1.57187,-0.18692 2.37634,-0.2626 0.20111,-0.0189 0.40305,-0.0371 0.60574,-0.0545 l 0.13559,-0.0111"
       fill-rule="evenodd"
       id="path69" />
    <path
       fill="#000000"
       stroke="#000000"
       stroke-width="2"
       stroke-linecap="butt"
       d="m 299.2933,128.32777 -2.15521,2.33934 6.08227,-2.5002 -6.26642,-1.99436 z"
       fill-rule="evenodd"
       id="path71" />
    <path
       fill="#000000"
       fill-opacity="0"
       d="m 193.07086,182.25197 c 32.52756,0 48.79134,12 65.05512,24 16.26379,12 32.52755,24 65.05511,24"
       fill-rule="evenodd"
       id="path73" />
    <path
       stroke="#000000"
       stroke-width="2"
       stroke-linejoin="round"
       stroke-linecap="butt"
       d="m 193.07086,182.25197 c 32.52756,0 48.79134,12 65.05512,24 8.13189,6 16.26379,12 26.42865,16.5 5.08242,2.25 10.67309,4.125 17.02615,5.4375 3.17651,0.65625 6.54364,1.17187 10.13309,1.52344 0.89737,0.0879 1.80862,0.16551 2.73428,0.23254 0.46283,0.0335 0.92926,0.0644 1.39935,0.0925 l 0.48197,0.0274"
       fill-rule="evenodd"
       id="path75" />
    <path
       fill="#000000"
       stroke="#000000"
       stroke-width="2"
       stroke-linecap="butt"
       d="m 316.32947,230.06534 -2.30957,2.18709 6.23849,-2.08008 -6.11599,-2.4166 z"
       fill-rule="evenodd"
       id="path77" />
    <path
       fill="#000000"
       fill-opacity="0"
       d="m 427.96063,128.03674 h 87.24408"
       fill-rule="evenodd"
       id="path79" />
    <path
       stroke="#000000"
       stroke-width="2"
       stroke-linejoin="round"
       stroke-linecap="butt"
       d="m 427.96063,128.03674 h 80.38992"
       fill-rule="evenodd"
       id="path81" />
    <path
       fill="#000000"
       stroke="#000000"
       stroke-width="2"
       stroke-linecap="butt"
       d="m 508.35056,128.03674 -2.24918,2.24918 6.17957,-2.24918 -6.17957,-2.24917 z"
       fill-rule="evenodd"
       id="path83" />
  </g>
  <text
     xml:space="preserve"
     id="text49"
     style="font-style:normal;font-weight:normal;font-size:16px;line-height:1.25;font-family:sans-serif;white-space:pre;shape-inside:url(#rect51);fill:#000000;fill-opacity:1;stroke:none;"
     transform="translate(4,10)"><tspan
       x="485.81836"
       y="169.30664"><tspan
         style="fill:#550000">(outros)</tspan></tspan></text>
</svg>
