<?xml version="1.0" encoding="UTF-8" standalone="no"?>
<svg
   xmlns:dc="http://purl.org/dc/elements/1.1/"
   xmlns:cc="http://creativecommons.org/ns#"
   xmlns:rdf="http://www.w3.org/1999/02/22-rdf-syntax-ns#"
   xmlns:svg="http://www.w3.org/2000/svg"
   xmlns="http://www.w3.org/2000/svg"
   xmlns:sodipodi="http://sodipodi.sourceforge.net/DTD/sodipodi-0.dtd"
   xmlns:inkscape="http://www.inkscape.org/namespaces/inkscape"
   version="1.1"
   viewBox="0 0 602 120"
   fill="none"
   stroke="none"
   stroke-linecap="square"
   stroke-miterlimit="10"
   id="svg61"
   sodipodi:docname="datafigs-flow2-tab.svg"
   width="602"
   height="120"
   inkscape:version="1.0.1 (0767f8302a, 2020-10-17)">
  <metadata
     id="metadata67">
    <rdf:RDF>
      <cc:Work
         rdf:about="">
        <dc:format>image/svg+xml</dc:format>
        <dc:type
           rdf:resource="http://purl.org/dc/dcmitype/StillImage" />
        <dc:title></dc:title>
      </cc:Work>
    </rdf:RDF>
  </metadata>
  <defs
     id="defs65" />
  <sodipodi:namedview
     pagecolor="#ffffff"
     bordercolor="#666666"
     borderopacity="1"
     objecttolerance="10"
     gridtolerance="10"
     guidetolerance="10"
     inkscape:pageopacity="0"
     inkscape:pageshadow="2"
     inkscape:window-width="1366"
     inkscape:window-height="713"
     id="namedview63"
     showgrid="false"
     inkscape:zoom="1.0481481"
     inkscape:cx="360"
     inkscape:cy="193.67491"
     inkscape:window-x="0"
     inkscape:window-y="27"
     inkscape:window-maximized="1"
     inkscape:current-layer="svg61" />
  <clipPath
     id="p.0">
    <path
       d="M 0,0 H 720 V 540 H 0 Z"
       clip-rule="nonzero"
       id="path2" />
  </clipPath>
  <g
     clip-path="url(#p.0)"
     id="g59">
    <path
       fill="#000000"
       fill-opacity="0"
       d="M 0,0 H 720 V 540 H 0 Z"
       fill-rule="evenodd"
       id="path5" />
    <path
       fill="#ffffff"
       d="m 138.35432,50.593174 h 302.5197 v 23.748035 h -302.5197 z"
       fill-rule="evenodd"
       id="path7" />
    <path
       fill="#cfe2f3"
       d="m 17.309711,30.339895 c 0,6.203417 27.27185,11.232283 60.913387,11.232283 33.641532,0 60.913392,-5.028866 60.913392,-11.232283 v 67.3937 c 0,6.203415 -27.27186,11.232285 -60.913392,11.232285 -33.641537,0 -60.913387,-5.02887 -60.913387,-11.232285 z"
       fill-rule="evenodd"
       id="path9" />
    <path
       fill="#e2edf7"
       d="m 17.309711,30.339895 c 0,-6.203419 27.27185,-11.232285 60.913387,-11.232285 33.641532,0 60.913392,5.028866 60.913392,11.232285 v 0 c 0,6.203417 -27.27186,11.232283 -60.913392,11.232283 -33.641537,0 -60.913387,-5.028866 -60.913387,-11.232283 z"
       fill-rule="evenodd"
       id="path11" />
    <path
       fill="#000000"
       fill-opacity="0"
       d="m 139.13649,30.339895 v 0 c 0,6.203417 -27.27186,11.232283 -60.91339,11.232283 -33.641537,0 -60.913387,-5.028866 -60.913387,-11.232283 0,-6.203419 27.27185,-11.232285 60.913387,-11.232285 33.64153,0 60.91339,5.028866 60.91339,11.232285 v 67.3937 c 0,6.203415 -27.27186,11.232285 -60.91339,11.232285 -33.641537,0 -60.913387,-5.02887 -60.913387,-11.232285 v -67.3937"
       fill-rule="evenodd"
       id="path13" />
    <path
       stroke="#000000"
       stroke-width="1"
       stroke-linejoin="round"
       stroke-linecap="butt"
       d="m 139.13649,30.339895 v 0 c 0,6.203417 -27.27186,11.232283 -60.91339,11.232283 -33.641537,0 -60.913387,-5.028866 -60.913387,-11.232283 0,-6.203419 27.27185,-11.232285 60.913387,-11.232285 33.64153,0 60.91339,5.028866 60.91339,11.232285 v 67.3937 c 0,6.203415 -27.27186,11.232285 -60.91339,11.232285 -33.641537,0 -60.913387,-5.02887 -60.913387,-11.232285 v -67.3937"
       fill-rule="evenodd"
       id="path15" />
    <path
       fill="#000000"
       d="M 31.958717,76.57289 V 63.213511 h 5.046875 q 1.328125,0 2.03125,0.125 0.96875,0.171875 1.640625,0.640625 0.671875,0.453129 1.078125,1.281254 0.40625,0.828125 0.40625,1.828125 0,1.703125 -1.09375,2.890625 -1.078125,1.171875 -3.921875,1.171875 h -3.421875 v 5.421875 z m 1.765625,-7 h 3.453125 q 1.71875,0 2.4375,-0.640625 0.71875,-0.640625 0.71875,-1.796875 0,-0.84375 -0.421875,-1.4375 -0.421875,-0.59375 -1.125,-0.78125 -0.4375,-0.125 -1.640625,-0.125 h -3.421875 z m 10.459198,7 v -9.671875 h 1.46875 v 1.46875 q 0.5625,-1.03125 1.03125,-1.359375 0.484375,-0.328125 1.0625,-0.328125 0.828125,0 1.6875,0.53125 l -0.5625,1.515625 q -0.609375,-0.359375 -1.203125,-0.359375 -0.546875,0 -0.96875,0.328125 -0.421875,0.328125 -0.609375,0.890625 -0.28125,0.875 -0.28125,1.921875 v 5.0625 z m 12.853302,-3.109375 1.6875,0.203125 q -0.40625,1.484375 -1.484375,2.3125 -1.078125,0.8125 -2.765625,0.8125 -2.125,0 -3.375,-1.296875 -1.234375,-1.3125 -1.234375,-3.671875 0,-2.453125 1.25,-3.796875 1.265625,-1.34375 3.265625,-1.34375 1.9375,0 3.15625,1.328125 1.234375,1.3125 1.234375,3.703125 0,0.15625 0,0.4375 h -7.21875 q 0.09375,1.59375 0.90625,2.453125 0.8125,0.84375 2.015625,0.84375 0.90625,0 1.546875,-0.46875 0.640625,-0.484375 1.015625,-1.515625 z m -5.390625,-2.65625 h 5.40625 q -0.109375,-1.21875 -0.625,-1.828125 -0.78125,-0.953125 -2.03125,-0.953125 -1.125,0 -1.90625,0.765625 -0.765625,0.75 -0.84375,2.015625 z m 8.485092,2.875 1.625,-0.25 q 0.125,0.96875 0.75,1.5 0.625,0.515625 1.75,0.515625 1.125,0 1.671875,-0.453125 0.546875,-0.46875 0.546875,-1.09375 0,-0.546875 -0.484375,-0.875 -0.328125,-0.21875 -1.671875,-0.546875 -1.8125,-0.46875 -2.515625,-0.796875 -0.6875,-0.328125 -1.046875,-0.90625 -0.359375,-0.59375 -0.359375,-1.3125 0,-0.640625 0.296875,-1.1875 0.296875,-0.5625 0.8125,-0.921875 0.375,-0.28125 1.03125,-0.46875 0.671875,-0.203125 1.421875,-0.203125 1.140625,0 2,0.328125 0.859375,0.328125 1.265625,0.890625 0.421875,0.5625 0.578125,1.5 l -1.609375,0.21875 q -0.109375,-0.75 -0.640625,-1.171875 -0.515625,-0.421875 -1.46875,-0.421875 -1.140625,0 -1.625,0.375 -0.46875,0.375 -0.46875,0.875 0,0.3125 0.1875,0.578125 0.203125,0.265625 0.640625,0.4375 0.234375,0.09375 1.4375,0.421875 1.75,0.453125 2.4375,0.75 0.6875,0.296875 1.078125,0.859375 0.390625,0.5625 0.390625,1.40625 0,0.828125 -0.484375,1.546875 -0.46875,0.71875 -1.375,1.125 -0.90625,0.390625 -2.046875,0.390625 -1.875,0 -2.875,-0.78125 -0.984375,-0.78125 -1.25,-2.328125 z m 16.609375,-0.21875 1.6875,0.203125 q -0.40625,1.484375 -1.484375,2.3125 -1.078125,0.8125 -2.765625,0.8125 -2.125,0 -3.375,-1.296875 -1.234375,-1.3125 -1.234375,-3.671875 0,-2.453125 1.25,-3.796875 1.265625,-1.34375 3.265625,-1.34375 1.9375,0 3.15625,1.328125 1.234375,1.3125 1.234375,3.703125 0,0.15625 0,0.4375 h -7.21875 q 0.09375,1.59375 0.90625,2.453125 0.8125,0.84375 2.015625,0.84375 0.90625,0 1.546875,-0.46875 0.640625,-0.484375 1.015625,-1.515625 z m -5.390625,-2.65625 h 5.40625 q -0.109375,-1.21875 -0.625,-1.828125 -0.78125,-0.953125 -2.03125,-0.953125 -1.125,0 -1.90625,0.765625 -0.765625,0.75 -0.84375,2.015625 z m 9.125717,5.765625 v -9.671875 h 1.468742 v 1.46875 q 0.5625,-1.03125 1.03125,-1.359375 0.484375,-0.328125 1.0625,-0.328125 0.828125,0 1.6875,0.53125 l -0.5625,1.515625 q -0.609375,-0.359375 -1.203125,-0.359375 -0.546875,0 -0.96875,0.328125 -0.421875,0.328125 -0.609375,0.890625 -0.28125,0.875 -0.28125,1.921875 v 5.0625 z m 8.915794,0 -3.6875,-9.671875 h 1.734375 l 2.078125,5.796875 q 0.328125,0.9375 0.625,1.9375 0.203125,-0.765625 0.609375,-1.828125 l 2.140625,-5.90625 h 1.6875 l -3.65625,9.671875 z m 12.95313,-1.1875 q -0.92188,0.765625 -1.76563,1.09375 -0.828125,0.3125 -1.796875,0.3125 -1.59375,0 -2.453125,-0.78125 -0.859375,-0.78125 -0.859375,-1.984375 0,-0.71875 0.328125,-1.296875 0.328125,-0.59375 0.84375,-0.9375 0.53125,-0.359375 1.1875,-0.546875 0.46875,-0.125 1.453125,-0.25 1.984375,-0.234375 2.921875,-0.5625 0.0156,-0.34375 0.0156,-0.421875 0,-1 -0.46875,-1.421875 -0.625,-0.546875 -1.875005,-0.546875 -1.15625,0 -1.703125,0.40625 -0.546875,0.40625 -0.8125,1.421875 l -1.609375,-0.21875 q 0.21875,-1.015625 0.71875,-1.640625 0.5,-0.640625 1.453125,-0.984375 0.953125,-0.34375 2.1875,-0.34375 1.25,0 2.01563,0.296875 0.78125,0.28125 1.14062,0.734375 0.375,0.4375 0.51563,1.109375 0.0781,0.421875 0.0781,1.515625 v 2.1875 q 0,2.28125 0.10938,2.890625 0.10937,0.59375 0.40625,1.15625 h -1.70313 q -0.26562,-0.515625 -0.32812,-1.1875 z m -0.14063,-3.671875 q -0.89062,0.375 -2.671875,0.625 -1.015625,0.140625 -1.4375,0.328125 -0.421875,0.1875 -0.65625,0.53125 -0.21875,0.34375 -0.21875,0.78125 0,0.65625 0.5,1.09375 0.5,0.4375 1.453125,0.4375 0.9375,0 1.67188,-0.40625 0.75,-0.421875 1.09375,-1.140625 0.26562,-0.5625 0.26562,-1.640625 z m 10.46947,4.859375 v -1.21875 q -0.90625,1.4375 -2.70313,1.4375 -1.15625,0 -2.125,-0.640625 -0.96875,-0.640625 -1.5,-1.78125 -0.53125,-1.140625 -0.53125,-2.625 0,-1.453125 0.48438,-2.625 0.48437,-1.1875 1.4375,-1.8125 0.96875,-0.625 2.17187,-0.625 0.875,0 1.54688,0.375 0.6875,0.359375 1.10937,0.953125 v -4.796879 h 1.64063 V 76.57289 Z m -5.17188,-4.828125 q 0,1.859375 0.78125,2.78125 0.78125,0.921875 1.84375,0.921875 1.07813,0 1.82813,-0.875 0.75,-0.890625 0.75,-2.6875 0,-1.984375 -0.76563,-2.90625 -0.76562,-0.9375 -1.89062,-0.9375 -1.07813,0 -1.8125,0.890625 -0.73438,0.890625 -0.73438,2.8125 z m 8.67259,-0.01563 q 0,-2.6875 1.48438,-3.96875 1.25,-1.078125 3.04687,-1.078125 2,0 3.26563,1.3125 1.26562,1.296875 1.26562,3.609375 0,1.859375 -0.5625,2.9375 -0.5625,1.0625 -1.64062,1.65625 -1.0625,0.59375 -2.32813,0.59375 -2.03125,0 -3.28125,-1.296875 -1.25,-1.3125 -1.25,-3.765625 z m 1.6875,0 q 0,1.859375 0.79688,2.796875 0.8125,0.921875 2.04687,0.921875 1.21875,0 2.03125,-0.921875 0.8125,-0.9375 0.8125,-2.84375 0,-1.796875 -0.8125,-2.71875 -0.8125,-0.921875 -2.03125,-0.921875 -1.23437,0 -2.04687,0.921875 -0.79688,0.90625 -0.79688,2.765625 z"
       fill-rule="nonzero"
       id="path17" />
    <path
       fill="#cfe2f3"
       d="m 226.13387,43.89895 v 0 c 0,3.707268 27.27185,6.712601 60.91338,6.712601 33.64154,0 60.91339,-3.005333 60.91339,-6.712601 v 40.27559 c 0,3.707268 -27.27185,6.712601 -60.91339,6.712601 -33.64153,0 -60.91338,-3.005333 -60.91338,-6.712601 z"
       fill-rule="evenodd"
       id="path19" />
    <path
       fill="#e2edf7"
       d="m 226.13387,43.89895 v 0 c 0,-3.707264 27.27185,-6.712597 60.91338,-6.712597 33.64154,0 60.91339,3.005333 60.91339,6.712597 v 0 c 0,3.707268 -27.27185,6.712601 -60.91339,6.712601 -33.64153,0 -60.91338,-3.005333 -60.91338,-6.712601 z"
       fill-rule="evenodd"
       id="path21" />
    <path
       fill="#000000"
       fill-opacity="0"
       d="m 347.96063,43.89895 v 0 c 0,3.707268 -27.27185,6.712601 -60.91339,6.712601 -33.64153,0 -60.91338,-3.005333 -60.91338,-6.712601 v 0 c 0,-3.707264 27.27185,-6.712597 60.91338,-6.712597 33.64154,0 60.91339,3.005333 60.91339,6.712597 v 40.27559 c 0,3.707268 -27.27185,6.712601 -60.91339,6.712601 -33.64153,0 -60.91338,-3.005333 -60.91338,-6.712601 V 43.89895"
       fill-rule="evenodd"
       id="path23" />
    <path
       stroke="#000000"
       stroke-width="1"
       stroke-linejoin="round"
       stroke-linecap="butt"
       d="m 347.96063,43.89895 v 0 c 0,3.707268 -27.27185,6.712601 -60.91339,6.712601 -33.64153,0 -60.91338,-3.005333 -60.91338,-6.712601 v 0 c 0,-3.707264 27.27185,-6.712597 60.91338,-6.712597 33.64154,0 60.91339,3.005333 60.91339,6.712597 v 40.27559 c 0,3.707268 -27.27185,6.712601 -60.91339,6.712601 -33.64153,0 -60.91338,-3.005333 -60.91338,-6.712601 V 43.89895"
       fill-rule="evenodd"
       id="path25" />
    <path
       fill="#000000"
       d="M 241.40952,74.31304 V 60.953665 h 9.01562 v 1.578125 h -7.25 v 4.140625 h 6.26563 v 1.578125 h -6.26563 v 6.0625 z m 11.09911,-11.46875 v -1.890625 h 1.64062 v 1.890625 z m 0,11.46875 v -9.671875 h 1.64062 v 9.671875 z m 4.09794,0 V 60.953665 h 1.64063 V 74.31304 Z m 7.76984,-1.46875 0.23437,1.453125 q -0.6875,0.140625 -1.23437,0.140625 -0.89063,0 -1.39063,-0.28125 -0.48437,-0.28125 -0.6875,-0.734375 -0.20312,-0.46875 -0.20312,-1.9375 V 65.90679 h -1.20313 v -1.265625 h 1.20313 V 62.25054 l 1.625,-0.984375 v 3.375 h 1.65625 v 1.265625 h -1.65625 v 5.671875 q 0,0.6875 0.0781,0.890625 0.0937,0.203125 0.28125,0.328125 0.20313,0.109375 0.57813,0.109375 0.26562,0 0.71875,-0.0625 z m 1.58954,1.46875 v -9.671875 h 1.46875 v 1.46875 q 0.5625,-1.03125 1.03125,-1.359375 0.48437,-0.328125 1.0625,-0.328125 0.82812,0 1.6875,0.53125 l -0.5625,1.515625 q -0.60938,-0.359375 -1.20313,-0.359375 -0.54687,0 -0.96875,0.328125 -0.42187,0.328125 -0.60937,0.890625 -0.28125,0.875 -0.28125,1.921875 v 5.0625 z m 12.5408,-1.1875 q -0.92188,0.765625 -1.76563,1.09375 -0.82812,0.3125 -1.79687,0.3125 -1.59375,0 -2.45313,-0.78125 -0.85937,-0.78125 -0.85937,-1.984375 0,-0.71875 0.32812,-1.296875 0.32813,-0.59375 0.84375,-0.9375 0.53125,-0.359375 1.1875,-0.546875 0.46875,-0.125 1.45313,-0.25 1.98437,-0.234375 2.92187,-0.5625 0.0156,-0.34375 0.0156,-0.421875 0,-1 -0.46875,-1.421875 -0.625,-0.546875 -1.875,-0.546875 -1.15625,0 -1.70313,0.40625 -0.54687,0.40625 -0.8125,1.421875 l -1.60937,-0.21875 q 0.21875,-1.015625 0.71875,-1.640625 0.5,-0.640625 1.45312,-0.984375 0.95313,-0.34375 2.1875,-0.34375 1.25,0 2.01563,0.296875 0.78125,0.28125 1.14062,0.734375 0.375,0.4375 0.51563,1.109375 0.0781,0.421875 0.0781,1.515625 v 2.1875 q 0,2.28125 0.10938,2.890625 0.10937,0.59375 0.40625,1.15625 h -1.70313 q -0.26562,-0.515625 -0.32812,-1.1875 z m -0.14063,-3.671875 q -0.89062,0.375 -2.67187,0.625 -1.01563,0.140625 -1.4375,0.328125 -0.42188,0.1875 -0.65625,0.53125 -0.21875,0.34375 -0.21875,0.78125 0,0.65625 0.5,1.09375 0.5,0.4375 1.45312,0.4375 0.9375,0 1.67188,-0.40625 0.75,-0.421875 1.09375,-1.140625 0.26562,-0.5625 0.26562,-1.640625 z m 10.46949,4.859375 v -1.21875 q -0.90625,1.4375 -2.70313,1.4375 -1.15625,0 -2.125,-0.640625 -0.96875,-0.640625 -1.5,-1.78125 -0.53125,-1.140625 -0.53125,-2.625 0,-1.453125 0.48438,-2.625 0.48437,-1.1875 1.4375,-1.8125 0.96875,-0.625 2.17187,-0.625 0.875,0 1.54688,0.375 0.6875,0.359375 1.10937,0.953125 v -4.796875 h 1.64063 V 74.31304 Z m -5.17188,-4.828125 q 0,1.859375 0.78125,2.78125 0.78125,0.921875 1.84375,0.921875 1.07813,0 1.82813,-0.875 0.75,-0.890625 0.75,-2.6875 0,-1.984375 -0.76563,-2.90625 -0.76562,-0.9375 -1.89062,-0.9375 -1.07813,0 -1.8125,0.890625 -0.73438,0.890625 -0.73438,2.8125 z m 8.67258,-0.01563 q 0,-2.6875 1.48437,-3.96875 1.25,-1.078125 3.04688,-1.078125 2,0 3.26562,1.3125 1.26563,1.296875 1.26563,3.609375 0,1.859375 -0.5625,2.9375 -0.5625,1.0625 -1.64063,1.65625 -1.0625,0.59375 -2.32812,0.59375 -2.03125,0 -3.28125,-1.296875 -1.25,-1.3125 -1.25,-3.765625 z m 1.6875,0 q 0,1.859375 0.79687,2.796875 0.8125,0.921875 2.04688,0.921875 1.21875,0 2.03125,-0.921875 0.8125,-0.9375 0.8125,-2.84375 0,-1.796875 -0.8125,-2.71875 -0.8125,-0.921875 -2.03125,-0.921875 -1.23438,0 -2.04688,0.921875 -0.79687,0.90625 -0.79687,2.765625 z m 17.60589,8.765625 q -1.35937,-1.703125 -2.29687,-4 -0.9375,-2.296875 -0.9375,-4.765625 0,-2.15625 0.70312,-4.140625 0.82813,-2.3125 2.53125,-4.59375 h 1.17188 q -1.09375,1.890625 -1.45313,2.703125 -0.54687,1.25 -0.875,2.625 -0.39062,1.703125 -0.39062,3.421875 0,4.375 2.71875,8.75 z"
       fill-rule="nonzero"
       id="path27" />
    <path
       fill="#000000"
       d="m 316.43613,62.828667 0.40625,-1.875 h 1.625 l -0.39063,1.875 z m -2.39063,11.484375 2.01563,-9.671875 h 1.65625 l -2.03125,9.671875 z m 4.20734,0 2.01563,-9.671875 h 1.5 l -0.35938,1.6875 q 0.96875,-1 1.8125,-1.453125 0.85938,-0.453125 1.73438,-0.453125 1.1875,0 1.84375,0.640625 0.67187,0.625 0.67187,1.703125 0,0.53125 -0.23437,1.6875 l -1.23438,5.859375 h -1.64062 l 1.28125,-6.125 q 0.1875,-0.890625 0.1875,-1.328125 0,-0.484375 -0.32813,-0.78125 -0.32812,-0.296875 -0.95312,-0.296875 -1.28125,0 -2.26563,0.90625 -0.98437,0.90625 -1.45312,3.125 l -0.9375,4.5 z"
       fill-rule="nonzero"
       id="path29" />
    <path
       fill="#000000"
       d="m 330.31604,78.23492 h -1.1875 q 2.73437,-4.375 2.73437,-8.75 0,-1.71875 -0.39062,-3.390625 -0.3125,-1.375 -0.875,-2.625 -0.35938,-0.828125 -1.46875,-2.734375 h 1.1875 q 1.70312,2.28125 2.53125,4.59375 0.6875,1.984375 0.6875,4.140625 0,2.46875 -0.9375,4.765625 -0.9375,2.296875 -2.28125,4 z"
       fill-rule="nonzero"
       id="path31" />
    <path
       fill="#cfe2f3"
       d="m 435.2126,50.087925 v 0 c 0,2.567909 30.50812,4.649609 68.14175,4.649609 37.63364,0 68.14169,-2.0817 68.14169,-4.649609 v 27.89764 c 0,2.567909 -30.50805,4.649605 -68.14169,4.649605 -37.63363,0 -68.14175,-2.081696 -68.14175,-4.649605 z"
       fill-rule="evenodd"
       id="path33" />
    <path
       fill="#e2edf7"
       d="m 435.2126,50.087925 v 0 c 0,-2.567905 30.50812,-4.649605 68.14175,-4.649605 37.63364,0 68.14169,2.081699 68.14169,4.649605 v 0 c 0,2.567909 -30.50805,4.649609 -68.14169,4.649609 -37.63363,0 -68.14175,-2.0817 -68.14175,-4.649609 z"
       fill-rule="evenodd"
       id="path35" />
    <path
       fill="#000000"
       fill-opacity="0"
       d="m 571.49603,50.087925 v 0 c 0,2.567909 -30.50806,4.649609 -68.14169,4.649609 -37.63364,0 -68.14175,-2.0817 -68.14175,-4.649609 v 0 c 0,-2.567905 30.50811,-4.649605 68.14175,-4.649605 37.63364,0 68.14169,2.081699 68.14169,4.649605 v 27.89764 c 0,2.567909 -30.50806,4.649605 -68.14169,4.649605 -37.63364,0 -68.14175,-2.081696 -68.14175,-4.649605 v -27.89764"
       fill-rule="evenodd"
       id="path37" />
    <path
       stroke="#000000"
       stroke-width="1"
       stroke-linejoin="round"
       stroke-linecap="butt"
       d="m 571.49603,50.087925 v 0 c 0,2.567909 -30.50806,4.649609 -68.14169,4.649609 -37.63364,0 -68.14175,-2.0817 -68.14175,-4.649609 v 0 c 0,-2.567905 30.50811,-4.649605 68.14175,-4.649605 37.63364,0 68.14169,2.081699 68.14169,4.649605 v 27.89764 c 0,2.567909 -30.50806,4.649605 -68.14169,4.649605 -37.63364,0 -68.14175,-2.081696 -68.14175,-4.649605 v -27.89764"
       fill-rule="evenodd"
       id="path39" />
    <path
       fill="#000000"
       d="m 454.11874,67.76968 1.39062,0.34375 q -0.4375,1.703125 -1.57812,2.609375 -1.125,0.890625 -2.76563,0.890625 -1.6875,0 -2.75,-0.6875 -1.0625,-0.6875 -1.625,-2 -0.54687,-1.3125 -0.54687,-2.8125 0,-1.640625 0.625,-2.859379 0.625,-1.21875 1.78125,-1.84375 1.15625,-0.640625 2.54687,-0.640625 1.5625,0 2.64063,0.8125 1.07812,0.796875 1.5,2.25 l -1.375,0.312504 q -0.35938,-1.140629 -1.0625,-1.656254 -0.6875,-0.53125 -1.73438,-0.53125 -1.21875,0 -2.03125,0.578125 -0.8125,0.578125 -1.14062,1.562504 -0.32813,0.96875 -0.32813,2.015625 0,1.328125 0.39063,2.328125 0.39062,1 1.21875,1.5 0.82812,0.484375 1.78125,0.484375 1.17187,0 1.96875,-0.671875 0.8125,-0.671875 1.09375,-1.984375 z m 2.45929,-0.125 q 0,-2.109375 1.17187,-3.125 0.98438,-0.843754 2.39063,-0.843754 1.57812,0 2.5625,1.031254 1,1.015625 1,2.828125 0,1.46875 -0.4375,2.3125 -0.4375,0.828125 -1.28125,1.296875 -0.84375,0.46875 -1.84375,0.46875 -1.59375,0 -2.57813,-1.015625 -0.98437,-1.03125 -0.98437,-2.953125 z m 1.32812,0 q 0,1.453125 0.625,2.1875 0.64063,0.71875 1.60938,0.71875 0.96875,0 1.59375,-0.71875 0.64062,-0.734375 0.64062,-2.234375 0,-1.40625 -0.64062,-2.125 -0.64063,-0.734375 -1.59375,-0.734375 -0.96875,0 -1.60938,0.71875 -0.625,0.71875 -0.625,2.1875 z m 7.30735,3.796875 v -7.593754 h 1.15625 v 1.078129 q 0.84375,-1.250004 2.42187,-1.250004 0.6875,0 1.26563,0.25 0.57812,0.234379 0.85937,0.640629 0.28125,0.40625 0.40625,0.953125 0.0625,0.359375 0.0625,1.25 v 4.671875 h -1.28125 v -4.625 q 0,-0.78125 -0.15625,-1.171875 -0.15625,-0.390625 -0.54687,-0.625 -0.375,-0.234375 -0.89063,-0.234375 -0.8125,0 -1.42187,0.53125 -0.59375,0.515625 -0.59375,1.96875 v 4.15625 z m 7.6355,-2.265625 1.26562,-0.203125 q 0.10938,0.765625 0.59375,1.171875 0.5,0.40625 1.375,0.40625 0.89063,0 1.3125,-0.359375 0.4375,-0.359375 0.4375,-0.84375 0,-0.4375 -0.375,-0.6875 -0.26562,-0.171875 -1.3125,-0.4375 -1.42187,-0.359375 -1.96875,-0.609375 -0.54687,-0.265625 -0.82812,-0.734375 -0.28125,-0.46875 -0.28125,-1.015625 0,-0.515625 0.21875,-0.9375 0.23437,-0.4375 0.64062,-0.734375 0.29688,-0.218754 0.8125,-0.359379 0.53125,-0.15625 1.125,-0.15625 0.89063,0 1.5625,0.265625 0.67188,0.250004 1,0.687504 0.32813,0.4375 0.4375,1.171875 l -1.25,0.171875 q -0.0937,-0.578125 -0.5,-0.90625 -0.40625,-0.34375 -1.15625,-0.34375 -0.89062,0 -1.28125,0.296875 -0.375,0.296875 -0.375,0.6875 0,0.25 0.15625,0.453125 0.15625,0.203125 0.5,0.34375 0.1875,0.07813 1.14063,0.328125 1.35937,0.359375 1.89062,0.59375 0.54688,0.234375 0.85938,0.6875 0.3125,0.4375 0.3125,1.09375 0,0.640625 -0.375,1.21875 -0.375,0.5625 -1.09375,0.875 -0.70313,0.3125 -1.59375,0.3125 -1.48438,0 -2.26563,-0.609375 -0.76562,-0.625 -0.98437,-1.828125 z m 7.35937,-1.53125 q 0,-2.109375 1.17188,-3.125 0.98437,-0.843754 2.39062,-0.843754 1.57813,0 2.5625,1.031254 1,1.015625 1,2.828125 0,1.46875 -0.4375,2.3125 -0.4375,0.828125 -1.28125,1.296875 -0.84375,0.46875 -1.84375,0.46875 -1.59375,0 -2.57812,-1.015625 -0.98438,-1.03125 -0.98438,-2.953125 z m 1.32813,0 q 0,1.453125 0.625,2.1875 0.64062,0.71875 1.60937,0.71875 0.96875,0 1.59375,-0.71875 0.64063,-0.734375 0.64063,-2.234375 0,-1.40625 -0.64063,-2.125 -0.64062,-0.734375 -1.59375,-0.734375 -0.96875,0 -1.60937,0.71875 -0.625,0.71875 -0.625,2.1875 z m 7.27609,3.796875 V 60.957176 h 1.28125 V 71.441555 Z M 492.1,62.425926 v -1.46875 h 1.29688 v 1.46875 z m 0,9.015629 v -7.593754 h 1.29688 v 7.593754 z m 8.17801,0 V 70.48843 q -0.71875,1.125 -2.125,1.125 -0.90625,0 -1.67187,-0.5 -0.75,-0.5 -1.17188,-1.390625 -0.42187,-0.90625 -0.42187,-2.078125 0,-1.140625 0.375,-2.0625 0.39062,-0.921875 1.14062,-1.40625 0.76563,-0.500004 1.70313,-0.500004 0.6875,0 1.21875,0.296875 0.53125,0.281254 0.875,0.734379 v -3.750004 h 1.28125 v 10.484379 z m -4.0625,-3.796875 q 0,1.46875 0.60938,2.1875 0.625,0.71875 1.45312,0.71875 0.84375,0 1.4375,-0.6875 0.59375,-0.6875 0.59375,-2.109375 0,-1.5625 -0.60937,-2.28125 -0.59375,-0.734375 -1.48438,-0.734375 -0.84375,0 -1.42187,0.703125 -0.57813,0.703125 -0.57813,2.203125 z m 12.24487,2.859375 q -0.71875,0.609375 -1.375,0.859375 -0.65625,0.25 -1.42187,0.25 -1.25,0 -1.92188,-0.609375 -0.67187,-0.609375 -0.67187,-1.5625 0,-0.5625 0.25,-1.015625 0.25,-0.46875 0.65625,-0.75 0.42187,-0.28125 0.9375,-0.421875 0.375,-0.09375 1.14062,-0.1875 1.5625,-0.1875 2.29688,-0.453125 0.0156,-0.265625 0.0156,-0.328125 0,-0.796875 -0.375,-1.109375 -0.48437,-0.4375 -1.45312,-0.4375 -0.92188,0 -1.35938,0.328125 -0.42187,0.3125 -0.625,1.109375 l -1.26562,-0.171875 q 0.17187,-0.796875 0.5625,-1.296875 0.39062,-0.5 1.14062,-0.765629 0.75,-0.265625 1.71875,-0.265625 0.98438,0 1.59375,0.234375 0.60938,0.218754 0.89063,0.562504 0.28125,0.34375 0.40625,0.875 0.0625,0.328125 0.0625,1.1875 v 1.71875 q 0,1.796875 0.0781,2.28125 0.0781,0.46875 0.32813,0.90625 h -1.34375 q -0.20313,-0.40625 -0.26563,-0.9375 z m -0.10937,-2.875 q -0.70313,0.28125 -2.09375,0.484375 -0.79688,0.109375 -1.125,0.265625 -0.32813,0.140625 -0.51563,0.421875 -0.17187,0.265625 -0.17187,0.59375 0,0.515625 0.39062,0.859375 0.39063,0.34375 1.14063,0.34375 0.73437,0 1.3125,-0.3125 0.59375,-0.328125 0.85937,-0.890625 0.20313,-0.4375 0.20313,-1.296875 z m 8.22925,3.8125 V 70.48843 q -0.71875,1.125 -2.125,1.125 -0.90625,0 -1.67188,-0.5 -0.75,-0.5 -1.1719,-1.390625 -0.42188,-0.90625 -0.42188,-2.078125 0,-1.140625 0.375,-2.0625 0.39063,-0.921875 1.14066,-1.40625 0.76562,-0.500004 1.70312,-0.500004 0.6875,0 1.21875,0.296875 0.53125,0.281254 0.875,0.734379 v -3.750004 h 1.28125 v 10.484379 z m -4.0625,-3.796875 q 0,1.46875 0.60937,2.1875 0.625,0.71875 1.45313,0.71875 0.84375,0 1.4375,-0.6875 0.59375,-0.6875 0.59375,-2.109375 0,-1.5625 -0.60938,-2.28125 -0.59375,-0.734375 -1.48437,-0.734375 -0.84375,0 -1.42188,0.703125 -0.57812,0.703125 -0.57812,2.203125 z m 6.80731,0 q 0,-2.109375 1.17187,-3.125 0.98438,-0.843754 2.39063,-0.843754 1.57812,0 2.5625,1.031254 1,1.015625 1,2.828125 0,1.46875 -0.4375,2.3125 -0.4375,0.828125 -1.28125,1.296875 -0.84375,0.46875 -1.84375,0.46875 -1.59375,0 -2.57813,-1.015625 -0.98437,-1.03125 -0.98437,-2.953125 z m 1.32812,0 q 0,1.453125 0.625,2.1875 0.64063,0.71875 1.60938,0.71875 0.96875,0 1.59375,-0.71875 0.64062,-0.734375 0.64062,-2.234375 0,-1.40625 -0.64062,-2.125 -0.64063,-0.734375 -1.59375,-0.734375 -0.96875,0 -1.60938,0.71875 -0.625,0.71875 -0.625,2.1875 z m 13.83246,6.875 q -1.0625,-1.34375 -1.79687,-3.140625 -0.73438,-1.8125 -0.73438,-3.734375 0,-1.703125 0.54688,-3.265625 0.64062,-1.812504 1.98437,-3.609379 h 0.92188 q -0.85938,1.484375 -1.14063,2.125 -0.4375,0.984375 -0.6875,2.062504 -0.29687,1.34375 -0.29687,2.6875 0,3.453125 2.125,6.875 z"
       fill-rule="nonzero"
       id="path41" />
    <path
       fill="#000000"
       d="m 536.6632,68.55093 q 0,-2.21875 1.3125,-3.671875 1.07812,-1.203129 2.82812,-1.203129 1.375,0 2.21875,0.859379 0.84375,0.859375 0.84375,2.3125 0,1.3125 -0.53125,2.4375 -0.53125,1.125 -1.51562,1.734375 -0.96875,0.59375 -2.04688,0.59375 -0.89062,0 -1.625,-0.375 -0.71875,-0.390625 -1.10937,-1.078125 -0.375,-0.6875 -0.375,-1.609375 z m 1.29687,-0.125 q 0,1.078125 0.51563,1.640625 0.51562,0.546875 1.29687,0.546875 0.42188,0 0.82813,-0.171875 0.40625,-0.171875 0.75,-0.515625 0.35937,-0.34375 0.60937,-0.78125 0.25,-0.4375 0.39063,-0.9375 0.23437,-0.71875 0.23437,-1.359375 0,-1.03125 -0.53125,-1.59375 -0.51562,-0.578125 -1.29687,-0.578125 -0.60938,0 -1.10938,0.296875 -0.5,0.28125 -0.90625,0.84375 -0.40625,0.546875 -0.59375,1.296875 -0.1875,0.734375 -0.1875,1.3125 z m 11.80738,1.640625 q -1.35938,1.546875 -2.79688,1.546875 -0.875,0 -1.42187,-0.5 -0.53125,-0.515625 -0.53125,-1.234375 0,-0.484375 0.23437,-1.65625 l 0.92188,-4.375004 h 1.29687 l -1.01562,4.859379 q -0.14063,0.609375 -0.14063,0.9375 0,0.4375 0.26563,0.671875 0.26562,0.234375 0.76562,0.234375 0.54688,0 1.0625,-0.265625 0.53125,-0.265625 0.90625,-0.703125 0.375,-0.453125 0.60938,-1.078125 0.15625,-0.390625 0.35937,-1.375 l 0.6875,-3.281254 h 1.29688 l -1.59375,7.593754 h -1.1875 z m 5.99481,0.328125 -0.21875,1.046875 q -0.46875,0.125 -0.90625,0.125 -0.76563,0 -1.21875,-0.375 -0.34375,-0.28125 -0.34375,-0.78125 0,-0.25 0.1875,-1.15625 l 0.92187,-4.40625 h -1.03125 l 0.20313,-1.000004 h 1.03125 l 0.39062,-1.875 1.48438,-0.890625 -0.57813,2.765625 h 1.26563 l -0.20313,1.000004 h -1.26562 l -0.89063,4.203125 q -0.15625,0.796875 -0.15625,0.953125 0,0.234375 0.125,0.359375 0.14063,0.109375 0.4375,0.109375 0.42188,0 0.76563,-0.07813 z"
       fill-rule="nonzero"
       id="path43" />
    <path
       fill="#000000"
       d="m 558.13116,74.51968 h -0.92187 q 2.14062,-3.421875 2.14062,-6.875 0,-1.34375 -0.3125,-2.671875 -0.25,-1.062504 -0.67187,-2.046879 -0.28125,-0.65625 -1.15625,-2.15625 h 0.92187 q 1.34375,1.796875 1.98438,3.609379 0.54687,1.5625 0.54687,3.265625 0,1.921875 -0.73437,3.734375 -0.73438,1.796875 -1.79688,3.140625 z"
       fill-rule="nonzero"
       id="path45" />
    <path
       fill="#000000"
       fill-opacity="0"
       d="m 347.96063,64.03674 h 87.24408"
       fill-rule="evenodd"
       id="path47" />
    <path
       stroke="#000000"
       stroke-width="2"
       stroke-linejoin="round"
       stroke-linecap="butt"
       d="m 347.96063,64.03674 h 80.38992"
       fill-rule="evenodd"
       id="path49" />
    <path
       fill="#000000"
       stroke="#000000"
       stroke-width="2"
       stroke-linecap="butt"
       d="m 428.35056,64.03674 -2.24918,2.249168 6.17954,-2.249168 -6.17954,-2.249165 z"
       fill-rule="evenodd"
       id="path51" />
    <path
       fill="#000000"
       fill-opacity="0"
       d="m 139.13649,64.03674 h 86.99213"
       fill-rule="evenodd"
       id="path53" />
    <path
       stroke="#000000"
       stroke-width="2"
       stroke-linejoin="round"
       stroke-linecap="butt"
       d="m 139.13649,64.03674 h 80.13796"
       fill-rule="evenodd"
       id="path55" />
    <path
       fill="#000000"
       stroke="#000000"
       stroke-width="2"
       stroke-linecap="butt"
       d="m 219.27443,64.03674 -2.24916,2.249168 6.17953,-2.249168 -6.17953,-2.249165 z"
       fill-rule="evenodd"
       id="path57" />
  </g>
</svg>
